<svg xmlns="http://www.w3.org/2000/svg" xmlns:xlink="http://www.w3.org/1999/xlink" viewBox="0 0 1135.13 1147.78"><defs><style>.cls-1{fill:none;}.cls-2{fill:#2a3234;}.cls-3{clip-path:url(#clip-path);}.cls-4{fill:#7c7474;}</style><clipPath id="clip-path"><circle class="cls-1" cx="570" cy="574" r="478"/></clipPath></defs><g id="Layer_1" data-name="Layer 1"><circle class="cls-2" cx="570" cy="574" r="478"/><g class="cls-3"><path class="cls-4" d="M543.54,425.73a20.75,20.75,0,1,0-29.34,0A20.73,20.73,0,0,0,543.54,425.73Z"/><path class="cls-4" d="M615,510.48a20.74,20.74,0,1,0,29.33,0A20.76,20.76,0,0,0,615,510.48Z"/><path class="cls-4" d="M863.07,334.19a20.74,20.74,0,1,0,0-29.33A20.72,20.72,0,0,0,863.07,334.19Z"/><path class="cls-4" d="M840.26,603.09a26.49,26.49,0,1,0,37.46,0A26.51,26.51,0,0,0,840.26,603.09Z"/><path class="cls-4" d="M948,440.16a20.74,20.74,0,1,0,29.33,0A20.75,20.75,0,0,0,948,440.16Z"/><path class="cls-4" d="M742.36,664.36a20.74,20.74,0,1,0,29.32,0A20.75,20.75,0,0,0,742.36,664.36Z"/><path class="cls-4" d="M977.15,668.34a20.75,20.75,0,1,0,29.34,0A20.75,20.75,0,0,0,977.15,668.34Z"/><path class="cls-4" d="M678.7,269.07a20.73,20.73,0,1,0,29.31,0A20.73,20.73,0,0,0,678.7,269.07Z"/><path class="cls-4" d="M759.61,843.43a20.74,20.74,0,1,0,29.33,0A20.73,20.73,0,0,0,759.61,843.43Z"/><path class="cls-4" d="M1095.81,505.41a21.17,21.17,0,1,0-18.35,35.88A341.79,341.79,0,0,1,850.3,901.05a27.15,27.15,0,0,0-4-5.07,26.7,26.7,0,0,0-5.64-4.29,315.22,315.22,0,0,0,8.79-63.12,296.47,296.47,0,0,0-3.25-55.78,31.38,31.38,0,0,0,17-17.68,455.51,455.51,0,0,1,85,24.89,21.38,21.38,0,1,0,6.12-12.74,13.18,13.18,0,0,0-1.14,1.24,473,473,0,0,0-88-25.73,31.11,31.11,0,0,0-2.89-12A490,490,0,0,0,982.14,592c30.84-53.45,51.39-113,57.74-174.66a21.48,21.48,0,1,0-19.81-5.76,21.13,21.13,0,0,0,7.38,4.8c-6.18,59.75-26.15,117.46-56.12,169.35a477.12,477.12,0,0,1-116.44,135A31.37,31.37,0,0,0,804,734.4c-5.49-.46-11.06-.85-16.67-1.19q-83.73-4.83-182.77,10.71c-.44-1.31-.89-2.63-1.42-3.91A978.51,978.51,0,0,0,725.4,652.44,1108.28,1108.28,0,0,0,855,523.87a26.49,26.49,0,1,0-9.53-8A1099.51,1099.51,0,0,1,717.38,642.92,970.59,970.59,0,0,1,597,729.18a43.21,43.21,0,0,0-4.44-5.07,49.09,49.09,0,0,0-5.5-4.76A986.09,986.09,0,0,1,705,562.77a30.72,30.72,0,0,0,41.77-43C812.13,456,885.68,400,964.2,351.69l.16.15a26.69,26.69,0,1,0-6.59-10.79C878.4,389.85,804,446.47,737.9,511a30.24,30.24,0,0,0-16.76-5,407.84,407.84,0,0,0-35.81-95.36l1.34-1.28a31,31,0,0,0,6-35.64,462.92,462.92,0,0,1,93.2-52.29c.54.65,1.13,1.32,1.75,1.93a21.51,21.51,0,1,0-6.26-13.54,475.63,475.63,0,0,0-96.31,54,31.08,31.08,0,0,0-32.43-5.1,436.39,436.39,0,0,0-68.32-72.45,22.73,22.73,0,0,0,1.31-13.74q14.82-7.38,30.29-13.24a341.6,341.6,0,0,1,210.32-10.91,20.75,20.75,0,1,0,6.08-15,22,22,0,0,0-2.48,3A354.15,354.15,0,0,0,611.4,247.58c-10.77,4.11-21.39,8.75-31.73,13.9l-.21-.23a22.69,22.69,0,0,0-37.87,22.25,350.84,350.84,0,0,0-63.81,54.38q-16.25-31-45.35-54.23-65.87-52.59-181-52.58Q187,231.07,133.26,255T49.18,321.55q-30.34,42.63-30.32,97.12H178.51q0-27.48,23.44-45.95t55.2-18.48q38.84,0,60.16,21.55t21.33,55.67q0,87.65-89.54,87.65H173.77V638h77.7q45.95,0,72,21.78t26,73.9q0,36.48-25.1,59.94t-67.27,23.44q-37.42,0-63-23.2t-25.58-55H8q0,58.27,29.84,104t87.88,71.54q58,25.81,125.79,25.81,115.57,0,186.64-55.41Q469.52,860.33,487,828.6A355,355,0,0,0,553.56,881a21.46,21.46,0,0,0,36.11,19.89l.46-.45a355,355,0,0,0,35.44,14,22.57,22.57,0,0,0,38.53,16.25,21.79,21.79,0,0,0,3.74-5,354.2,354.2,0,0,0,136.56.55,25.73,25.73,0,0,0,4.9,6.76A26.22,26.22,0,0,0,854,913a353.73,353.73,0,0,0,235.83-373.47,20.78,20.78,0,0,0,6-4.21A21.18,21.18,0,0,0,1095.81,505.41ZM674.55,416.78a397.8,397.8,0,0,1,34.37,91.65,30.05,30.05,0,0,0-9.55,6.46,30.7,30.7,0,0,0-3.48,39.28,999.21,999.21,0,0,0-119.82,159.1,48.61,48.61,0,0,0-11.32-3q-2.54-54-19-99.7a37.15,37.15,0,0,0,5.81-4.72,36.52,36.52,0,0,0,0-51.63,38,38,0,0,0-6.34-5.07c22.09-47.37,53.93-91.49,92.67-129.42q4-3.87,8.06-7.7A31.18,31.18,0,0,0,674.55,416.78ZM510,766c-.92.16-1.86.28-2.78.43a218.58,218.58,0,0,0,2-29.35c0-4.08-.14-8.07-.35-12q4.47,3.13,8.82,6.41A48.81,48.81,0,0,0,510,766Zm-2.69-57.1q-5.8-41.48-29.37-72A170.8,170.8,0,0,0,435.31,598a20.68,20.68,0,1,0-9-5.52,216.49,216.49,0,0,0-30.27-14.3c0-1.31,0-2.62,0-3.94q47.63-23.58,73.61-60.13a274.47,274.47,0,0,1,32.22,38.32c-.66.61-1.34,1.19-2,1.85a36.5,36.5,0,0,0,34.37,61.3q15.45,43.31,18,94.63A48.86,48.86,0,0,0,525.9,722Q516.86,715.16,507.28,708.85Zm40.91-414.74a22.67,22.67,0,0,0,28.23,1.77,424.68,424.68,0,0,1,65.9,69.82,31.11,31.11,0,0,0-4.65,37c-2.9,2.71-5.76,5.41-8.57,8.2-39.91,39.09-72.72,84.6-95.45,133.56a36.52,36.52,0,0,0-21,1.55,289.11,289.11,0,0,0-35.95-42.56q21.57-35.68,21.62-75.32,0-43.42-14.78-78A338.15,338.15,0,0,1,548.19,294.11ZM492.91,816.78A175.35,175.35,0,0,0,505,779.3l.66-.08c2.6-.35,5.17-.77,7.74-1.24a49,49,0,0,0,26.86,25.89,117.24,117.24,0,0,0,.89,20.44,126.33,126.33,0,0,0,14.11,43A341.12,341.12,0,0,1,492.91,816.78Zm139.26,82a23.2,23.2,0,0,0-3,3.76,340.51,340.51,0,0,1-33.51-13.28,21.46,21.46,0,0,0-27.32-24.07,115.93,115.93,0,0,1-14.79-42.5,105.43,105.43,0,0,1-.87-15.71A48.77,48.77,0,0,0,585.2,799a341,341,0,0,1,50.71,96.71A22.6,22.6,0,0,0,632.17,898.73Zm23.43-5.34a23.11,23.11,0,0,0-7.74-1.28,354.74,354.74,0,0,0-53.27-101.36,48.56,48.56,0,0,0,12.15-34.55q97.47-15.29,179.88-10.49c5.4.3,10.74.69,16,1.12a31,31,0,0,0,2.42,9.52C750.91,794.08,701.65,831.08,655.6,893.39ZM837,828.1a305.17,305.17,0,0,1-8.33,60.26,26.1,26.1,0,0,0-27.06,25.74,341.27,341.27,0,0,1-131-.55,22.51,22.51,0,0,0-4.87-13c44.89-60.64,93.21-97,146.36-134A31.07,31.07,0,0,0,834,775.31,284.09,284.09,0,0,1,837,828.1Z"/><path class="cls-4" d="M656.14,782.39a20.74,20.74,0,1,0,29.33,0A20.76,20.76,0,0,0,656.14,782.39Z"/></g></g></svg>