<svg xmlns="http://www.w3.org/2000/svg" xmlns:xlink="http://www.w3.org/1999/xlink" viewBox="0 0 987 998"><defs><style>.cls-1{clip-rule:evenodd;}.cls-2{fill:#f0f;}.cls-3{fill-rule:evenodd;}.cls-4{clip-path:url(#clip-path);}</style><clipPath id="clip-path"><path class="cls-1" d="M314.33,506.62a5.16,5.16,0,0,1,1.69.28c10.07-13.62,20.84-21.71,32.68-30a6.93,6.93,0,0,1-.53-2.08c-1.15-.1-2.32-.18-3.5-.25a185.77,185.77,0,0,0-39.33,2.29,10.64,10.64,0,0,1-2.66,7.56,77.78,77.78,0,0,1,11.65,22.16m-4.09,2.27a5,5,0,0,1,.66-.82,5.16,5.16,0,0,1,.82-.66,74.71,74.71,0,0,0-11.09-21.15,10.68,10.68,0,0,1-7.12,1.74,23.06,23.06,0,0,0,.19,3.43,25.49,25.49,0,0,0,3.24,9.3,4.68,4.68,0,0,1,6,5.26A73.39,73.39,0,0,0,310.24,508.89ZM276,482.4a5,5,0,0,1-.89,1.6,74.18,74.18,0,0,0,19,17.21A27.61,27.61,0,0,1,291,491.8a25.65,25.65,0,0,1-.19-4.47,10.75,10.75,0,0,1-5.88-5.66c-.56.1-1.12.19-1.69.27A45.33,45.33,0,0,1,276,482.4Zm-10.27-21.74a5.63,5.63,0,0,1-1,1.27,5.73,5.73,0,0,1-1.19.93,75.47,75.47,0,0,0,5.91,12.82,5.27,5.27,0,0,1,6.7,4,42.92,42.92,0,0,0,6.73-.43l1.32-.2a10.65,10.65,0,0,1,1.67-7.55,77.36,77.36,0,0,0-7.62-5.05,79.15,79.15,0,0,0-8.82-4.35C268.18,461.58,266.93,461.1,265.68,460.66Zm.38-44.43a5.36,5.36,0,0,1-4,1.41,74.45,74.45,0,0,0-1.54,34.14,6,6,0,0,1,5.9,6.26c1.34.47,2.68,1,4,1.53a80.54,80.54,0,0,1,9.13,4.51,79.39,79.39,0,0,1,8.07,5.34,10.75,10.75,0,0,1,5.76-2.58,71.58,71.58,0,0,0-3.93-20.69,8,8,0,0,1-7.51-13.4c.14-.15.28-.27.43-.41A64.28,64.28,0,0,0,266.06,416.23Zm58.77,16.5a6.72,6.72,0,0,1,.76-8.59,6.54,6.54,0,0,1,2.09-1.41,86.62,86.62,0,0,0-7.52-20,6.85,6.85,0,0,1-6.26-1c-.6.55-1.18,1.11-1.76,1.68a97.76,97.76,0,0,0-20.27,28.3,8.06,8.06,0,0,1,1.39,1.11,8,8,0,0,1,0,11.29,8.94,8.94,0,0,1-1.27,1,73.58,73.58,0,0,1,4.16,21.8,10.67,10.67,0,0,1,2.48.65A218.25,218.25,0,0,1,324.83,432.73Zm-26.12-56.48a5,5,0,0,1-6.18-.39,74.45,74.45,0,0,0-23.25,24.82,73.57,73.57,0,0,0-3.65,7.19,6,6,0,0,1,.6.53,5.39,5.39,0,0,1,1.32,5.54,67.25,67.25,0,0,1,17.21,17,8,8,0,0,1,4.59-.33,100.58,100.58,0,0,1,20.88-29.21c.61-.61,1.24-1.2,1.87-1.79a6.81,6.81,0,0,1,1-8.09A92.72,92.72,0,0,0,298.71,376.25ZM348,511.43a5.71,5.71,0,0,1,5.92-5.63,67,67,0,0,0,1.82-13.17,62.82,62.82,0,0,0-.66-11.55,6.8,6.8,0,0,1-4.78-1.91c-11.62,8.1-22.18,16.05-32,29.31a4.93,4.93,0,0,1,1.07,2.83A74.36,74.36,0,0,0,348,511.43Zm16.64-68a5.79,5.79,0,1,1-8.19,0A5.79,5.79,0,0,1,364.59,443.42Zm3.21-65.21a4.54,4.54,0,1,1-6.41,0A4.53,4.53,0,0,1,367.8,378.21Zm18.56,29.59a4.53,4.53,0,1,1-6.41,0A4.51,4.51,0,0,1,386.36,407.8Zm6.39,49.89a4.54,4.54,0,1,1-6.42,0A4.54,4.54,0,0,1,392.75,457.69ZM291.52,398.23a4.54,4.54,0,1,1-6.42,0A4.53,4.53,0,0,1,291.52,398.23Zm22,24.95a4.54,4.54,0,1,1-6.41,0A4.53,4.53,0,0,1,313.56,423.18Zm13.92-52.79a4.53,4.53,0,1,1-6.41,0A4.51,4.51,0,0,1,327.48,370.39Zm-4.93,112.24a4.54,4.54,0,1,1-6.41,0A4.54,4.54,0,0,1,322.55,482.63Zm18.85-25.81a4.54,4.54,0,1,1-6.41,0A4.53,4.53,0,0,1,341.4,456.82Zm-69-22a4.53,4.53,0,1,1-6.41,0A4.53,4.53,0,0,1,272.37,434.78ZM345.18,496a4.54,4.54,0,1,1-6.42,0A4.53,4.53,0,0,1,345.18,496ZM411,429.53a77.44,77.44,0,0,1-51.57,81.66,5.73,5.73,0,0,1-9.77,4.39,5.57,5.57,0,0,1-1.07-1.48A77.54,77.54,0,0,1,318.7,514a4.94,4.94,0,0,1-9.25-2.47,78.3,78.3,0,0,1-7.74-3.07l-.11.1a4.69,4.69,0,0,1-7.89-4.35,77.28,77.28,0,0,1-20.85-18.58,5.26,5.26,0,0,1-5.74-8.48,77.29,77.29,0,0,1-6.21-13.46,6,6,0,0,1-4.62-10.16,6.46,6.46,0,0,1,1.59-1.14,77.2,77.2,0,0,1,1.61-35.57,5.27,5.27,0,0,1-.92-.73,5.43,5.43,0,0,1,4.52-9.22,80.66,80.66,0,0,1,3.82-7.53,77.2,77.2,0,0,1,24.18-25.78,5,5,0,0,1,8.28-4.86l.05.05c2.26-1.13,4.58-2.14,6.94-3a77.37,77.37,0,0,1,47.75-2.45,4.86,4.86,0,0,1,.54-.66,4.53,4.53,0,1,1-1.33,3.27,74.66,74.66,0,0,0-46,2.39c-2.25.85-4.46,1.82-6.62,2.89a4.94,4.94,0,0,1-.29,3A95.06,95.06,0,0,1,315.36,390a6.8,6.8,0,0,1,7.09,1.11,104.18,104.18,0,0,1,21.06-11.81,4.72,4.72,0,1,1,1.37,3c-.13-.13-.26-.28-.38-.42a101.18,101.18,0,0,0-20.38,11.43,6.79,6.79,0,0,1-1.31,7.8l-.29.28a88.58,88.58,0,0,1,7.83,20.85,6.6,6.6,0,0,1,3.67,1.1,275.38,275.38,0,0,1,48.07-37.15,5.87,5.87,0,1,1,1.45,2.36l0,0A273.1,273.1,0,0,0,336,425.2a6.72,6.72,0,0,1-9.14,9.41A216.49,216.49,0,0,0,301,468.85a10.73,10.73,0,0,1,1.21,1,11.33,11.33,0,0,1,1,1.11,211.45,211.45,0,0,0,26.33-18.87,239.34,239.34,0,0,0,28-27.78,5.8,5.8,0,1,1,2.09,1.75,242.84,242.84,0,0,1-28.35,28.12,214.42,214.42,0,0,1-26.73,19.15c.12.28.21.56.31.85a188,188,0,0,1,40-2.34c1.22.07,2.44.16,3.64.26a6.86,6.86,0,0,1,11.13-3,104.36,104.36,0,0,0,25.46-29.51,93.59,93.59,0,0,0,12.27-37,4.4,4.4,0,0,1-1.61-1.05,4.7,4.7,0,1,1,6.64,0,4.6,4.6,0,0,1-2.31,1.26A96.49,96.49,0,0,1,387.42,441a107.22,107.22,0,0,1-26.2,30.33,6.64,6.64,0,0,1,.63,2.63,104.13,104.13,0,0,1,19.24,5.62l.25-.27a4.66,4.66,0,1,1-1.34,2.79,99.9,99.9,0,0,0-18.59-5.44,6.75,6.75,0,0,1-1.56,2.41,6.92,6.92,0,0,1-2.15,1.45,63.84,63.84,0,0,1,.71,12.2,68.92,68.92,0,0,1-1.92,13.8,5.64,5.64,0,0,1,2.1,2.05,74.66,74.66,0,0,0,49.68-78.67,4.55,4.55,0,0,1-2.54-1.3,4.63,4.63,0,1,1,5.24.92Z"/></clipPath></defs><g id="Layer_1" data-name="Layer 1"><circle class="cls-2" cx="495" cy="496" r="478"/><path class="cls-3" d="M314.33,506.62a5.16,5.16,0,0,1,1.69.28c10.07-13.62,20.84-21.71,32.68-30a6.93,6.93,0,0,1-.53-2.08c-1.15-.1-2.32-.18-3.5-.25a185.77,185.77,0,0,0-39.33,2.29,10.64,10.64,0,0,1-2.66,7.56,77.78,77.78,0,0,1,11.65,22.16m-4.09,2.27a5,5,0,0,1,.66-.82,5.16,5.16,0,0,1,.82-.66,74.71,74.71,0,0,0-11.09-21.15,10.68,10.68,0,0,1-7.12,1.74,23.06,23.06,0,0,0,.19,3.43,25.49,25.49,0,0,0,3.24,9.3,4.68,4.68,0,0,1,6,5.26A73.39,73.39,0,0,0,310.24,508.89ZM276,482.4a5,5,0,0,1-.89,1.6,74.18,74.18,0,0,0,19,17.21A27.61,27.61,0,0,1,291,491.8a25.65,25.65,0,0,1-.19-4.47,10.75,10.75,0,0,1-5.88-5.66c-.56.1-1.12.19-1.69.27A45.33,45.33,0,0,1,276,482.4Zm-10.27-21.74a5.63,5.63,0,0,1-1,1.27,5.73,5.73,0,0,1-1.19.93,75.47,75.47,0,0,0,5.91,12.82,5.27,5.27,0,0,1,6.7,4,42.92,42.92,0,0,0,6.73-.43l1.32-.2a10.65,10.65,0,0,1,1.67-7.55,77.36,77.36,0,0,0-7.62-5.05,79.15,79.15,0,0,0-8.82-4.35C268.18,461.58,266.93,461.1,265.68,460.66Zm.38-44.43a5.36,5.36,0,0,1-4,1.41,74.45,74.45,0,0,0-1.54,34.14,6,6,0,0,1,5.9,6.26c1.34.47,2.68,1,4,1.53a80.54,80.54,0,0,1,9.13,4.51,79.39,79.39,0,0,1,8.07,5.34,10.75,10.75,0,0,1,5.76-2.58,71.58,71.58,0,0,0-3.93-20.69,8,8,0,0,1-7.51-13.4c.14-.15.28-.27.43-.41A64.28,64.28,0,0,0,266.06,416.23Zm58.77,16.5a6.72,6.72,0,0,1,.76-8.59,6.54,6.54,0,0,1,2.09-1.41,86.62,86.62,0,0,0-7.52-20,6.85,6.85,0,0,1-6.26-1c-.6.55-1.18,1.11-1.76,1.68a97.76,97.76,0,0,0-20.27,28.3,8.06,8.06,0,0,1,1.39,1.11,8,8,0,0,1,0,11.29,8.94,8.94,0,0,1-1.27,1,73.58,73.58,0,0,1,4.16,21.8,10.67,10.67,0,0,1,2.48.65A218.25,218.25,0,0,1,324.83,432.73Zm-26.12-56.48a5,5,0,0,1-6.18-.39,74.45,74.45,0,0,0-23.25,24.82,73.57,73.57,0,0,0-3.65,7.19,6,6,0,0,1,.6.53,5.39,5.39,0,0,1,1.32,5.54,67.25,67.25,0,0,1,17.21,17,8,8,0,0,1,4.59-.33,100.58,100.58,0,0,1,20.88-29.21c.61-.61,1.24-1.2,1.87-1.79a6.81,6.81,0,0,1,1-8.09A92.72,92.72,0,0,0,298.71,376.25ZM348,511.43a5.71,5.71,0,0,1,5.92-5.63,67,67,0,0,0,1.82-13.17,62.82,62.82,0,0,0-.66-11.55,6.8,6.8,0,0,1-4.78-1.91c-11.62,8.1-22.18,16.05-32,29.31a4.93,4.93,0,0,1,1.07,2.83A74.36,74.36,0,0,0,348,511.43Zm16.64-68a5.79,5.79,0,1,1-8.19,0A5.79,5.79,0,0,1,364.59,443.42Zm3.21-65.21a4.54,4.54,0,1,1-6.41,0A4.53,4.53,0,0,1,367.8,378.21Zm18.56,29.59a4.53,4.53,0,1,1-6.41,0A4.51,4.51,0,0,1,386.36,407.8Zm6.39,49.89a4.54,4.54,0,1,1-6.42,0A4.54,4.54,0,0,1,392.75,457.69ZM291.52,398.23a4.54,4.54,0,1,1-6.42,0A4.53,4.53,0,0,1,291.52,398.23Zm22,24.95a4.54,4.54,0,1,1-6.41,0A4.53,4.53,0,0,1,313.56,423.18Zm13.92-52.79a4.53,4.53,0,1,1-6.41,0A4.51,4.51,0,0,1,327.48,370.39Zm-4.93,112.24a4.54,4.54,0,1,1-6.41,0A4.54,4.54,0,0,1,322.55,482.63Zm18.85-25.81a4.54,4.54,0,1,1-6.41,0A4.53,4.53,0,0,1,341.4,456.82Zm-69-22a4.53,4.53,0,1,1-6.41,0A4.53,4.53,0,0,1,272.37,434.78ZM345.18,496a4.54,4.54,0,1,1-6.42,0A4.53,4.53,0,0,1,345.18,496ZM411,429.53a77.44,77.44,0,0,1-51.57,81.66,5.73,5.73,0,0,1-9.77,4.39,5.57,5.57,0,0,1-1.07-1.48A77.54,77.54,0,0,1,318.7,514a4.94,4.94,0,0,1-9.25-2.47,78.3,78.3,0,0,1-7.74-3.07l-.11.1a4.69,4.69,0,0,1-7.89-4.35,77.28,77.28,0,0,1-20.85-18.58,5.26,5.26,0,0,1-5.74-8.48,77.29,77.29,0,0,1-6.21-13.46,6,6,0,0,1-4.62-10.16,6.46,6.46,0,0,1,1.59-1.14,77.2,77.2,0,0,1,1.61-35.57,5.27,5.27,0,0,1-.92-.73,5.43,5.43,0,0,1,4.52-9.22,80.66,80.66,0,0,1,3.82-7.53,77.2,77.2,0,0,1,24.18-25.78,5,5,0,0,1,8.28-4.86l.05.05c2.26-1.13,4.58-2.14,6.94-3a77.37,77.37,0,0,1,47.75-2.45,4.86,4.86,0,0,1,.54-.66,4.53,4.53,0,1,1-1.33,3.27,74.66,74.66,0,0,0-46,2.39c-2.25.85-4.46,1.82-6.62,2.89a4.94,4.94,0,0,1-.29,3A95.06,95.06,0,0,1,315.36,390a6.8,6.8,0,0,1,7.09,1.11,104.18,104.18,0,0,1,21.06-11.81,4.72,4.72,0,1,1,1.37,3c-.13-.13-.26-.28-.38-.42a101.18,101.18,0,0,0-20.38,11.43,6.79,6.79,0,0,1-1.31,7.8l-.29.28a88.58,88.58,0,0,1,7.83,20.85,6.6,6.6,0,0,1,3.67,1.1,275.38,275.38,0,0,1,48.07-37.15,5.87,5.87,0,1,1,1.45,2.36l0,0A273.1,273.1,0,0,0,336,425.2a6.72,6.72,0,0,1-9.14,9.41A216.49,216.49,0,0,0,301,468.85a10.73,10.73,0,0,1,1.21,1,11.33,11.33,0,0,1,1,1.11,211.45,211.45,0,0,0,26.33-18.87,239.34,239.34,0,0,0,28-27.78,5.8,5.8,0,1,1,2.09,1.75,242.84,242.84,0,0,1-28.35,28.12,214.42,214.42,0,0,1-26.73,19.15c.12.28.21.56.31.85a188,188,0,0,1,40-2.34c1.22.07,2.44.16,3.64.26a6.86,6.86,0,0,1,11.13-3,104.36,104.36,0,0,0,25.46-29.51,93.59,93.59,0,0,0,12.27-37,4.4,4.4,0,0,1-1.61-1.05,4.7,4.7,0,1,1,6.64,0,4.6,4.6,0,0,1-2.31,1.26A96.49,96.49,0,0,1,387.42,441a107.22,107.22,0,0,1-26.2,30.33,6.64,6.64,0,0,1,.63,2.63,104.13,104.13,0,0,1,19.24,5.62l.25-.27a4.66,4.66,0,1,1-1.34,2.79,99.9,99.9,0,0,0-18.59-5.44,6.75,6.75,0,0,1-1.56,2.41,6.92,6.92,0,0,1-2.15,1.45,63.84,63.84,0,0,1,.71,12.2,68.92,68.92,0,0,1-1.92,13.8,5.64,5.64,0,0,1,2.1,2.05,74.66,74.66,0,0,0,49.68-78.67,4.55,4.55,0,0,1-2.54-1.3,4.63,4.63,0,1,1,5.24.92Z"/><g class="cls-4"><polygon class="cls-3" points="230.52 387.45 234.92 386.03 285.15 540.67 280.76 542.09 230.52 387.45"/><rect x="259.72" y="382.01" width="0.93" height="162.59" transform="translate(-130.16 102.78) rotate(-17.96)"/><rect x="260.31" y="381.81" width="0.93" height="162.59" transform="translate(-130.06 102.94) rotate(-17.95)"/><polygon class="cls-3" points="235.81 385.74 236.7 385.45 286.94 540.09 286.05 540.37 235.81 385.74"/><polygon class="cls-3" points="236.4 385.55 237.29 385.25 287.53 539.89 286.64 540.19 236.4 385.55"/><rect x="262.09" y="381.24" width="0.94" height="162.59" transform="translate(-129.8 103.47) rotate(-17.96)"/><rect x="262.68" y="381.04" width="0.93" height="162.59" transform="matrix(0.95, -0.31, 0.31, 0.95, -129.33, 103.22)"/><rect x="263.28" y="380.85" width="0.93" height="162.59" transform="translate(-129.63 103.82) rotate(-17.96)"/><polygon class="cls-3" points="238.77 384.78 239.66 384.49 289.9 539.13 289.01 539.42 238.77 384.78"/><rect x="264.46" y="380.47" width="0.93" height="162.59" transform="translate(-129.45 104.17) rotate(-17.96)"/><rect x="265.05" y="380.27" width="0.93" height="162.59" transform="translate(-129.37 104.34) rotate(-17.96)"/><rect x="265.64" y="380.08" width="0.93" height="162.59" transform="translate(-129.28 104.51) rotate(-17.96)"/><rect x="266.23" y="379.89" width="0.94" height="162.59" transform="translate(-129.18 104.68) rotate(-17.96)"/><rect x="266.83" y="379.69" width="0.93" height="162.59" transform="matrix(0.95, -0.31, 0.31, 0.95, -129.1, 104.86)"/><polygon class="cls-3" points="242.32 383.62 243.22 383.33 293.45 537.97 292.56 538.26 242.32 383.62"/><rect x="268.01" y="379.31" width="0.93" height="162.59" transform="translate(-128.92 105.21) rotate(-17.96)"/><polygon class="cls-3" points="243.51 383.24 244.4 382.94 294.63 537.58 293.75 537.88 243.51 383.24"/><rect x="269.2" y="378.93" width="0.93" height="162.59" transform="translate(-128.75 105.55) rotate(-17.96)"/><rect x="269.79" y="378.73" width="0.93" height="162.59" transform="translate(-128.27 105.29) rotate(-17.89)"/><rect x="270.38" y="378.53" width="0.94" height="162.59" transform="translate(-128.56 105.89) rotate(-17.96)"/><rect x="270.98" y="378.34" width="0.93" height="162.59" transform="translate(-128.87 106.51) rotate(-18.02)"/><rect x="271.57" y="378.16" width="0.93" height="162.59" transform="translate(-128.39 106.25) rotate(-17.96)"/><rect x="272.16" y="377.96" width="0.93" height="162.59" transform="translate(-128.3 106.42) rotate(-17.96)"/><rect x="272.75" y="377.77" width="0.93" height="162.59" transform="translate(-127.83 106.16) rotate(-17.89)"/><polygon class="cls-3" points="248.25 381.7 249.14 381.41 299.38 536.04 298.49 536.34 248.25 381.7"/><rect x="273.94" y="377.38" width="0.93" height="162.59" transform="matrix(0.95, -0.31, 0.31, 0.95, -128.04, 106.94)"/><rect x="274.53" y="377.19" width="0.93" height="162.59" transform="translate(-127.95 107.11) rotate(-17.96)"/><rect x="275.13" y="377" width="0.93" height="162.59" transform="translate(-127.48 106.84) rotate(-17.89)"/><rect x="275.72" y="376.8" width="0.93" height="162.59" transform="matrix(0.95, -0.31, 0.31, 0.95, -127.78, 107.46)"/><rect x="276.31" y="376.61" width="0.93" height="162.59" transform="translate(-127.68 107.63) rotate(-17.96)"/><rect x="276.9" y="376.42" width="0.93" height="162.59" transform="translate(-127.6 107.81) rotate(-17.96)"/><rect x="277.5" y="376.23" width="0.93" height="162.59" transform="matrix(0.95, -0.31, 0.31, 0.95, -127.51, 107.98)"/><polygon class="cls-3" points="252.99 380.16 253.89 379.87 304.12 534.5 303.23 534.79 252.99 380.16"/><rect x="278.68" y="375.84" width="0.94" height="162.59" transform="translate(-126.58 107.45) rotate(-17.83)"/><polygon class="cls-3" points="254.18 379.77 255.07 379.48 305.31 534.12 304.42 534.41 254.18 379.77"/><rect x="279.86" y="375.46" width="0.93" height="162.59" transform="translate(-126.78 108.23) rotate(-17.89)"/><polygon class="cls-3" points="255.37 379.38 256.25 379.1 306.49 533.73 305.6 534.02 255.37 379.38"/><rect x="281.05" y="375.07" width="0.93" height="162.59" transform="translate(-126.98 109.02) rotate(-17.96)"/><rect x="281.65" y="374.88" width="0.93" height="162.59" transform="translate(-126.89 109.19) rotate(-17.96)"/><rect x="282.24" y="374.69" width="0.94" height="162.59" transform="translate(-126.8 109.36) rotate(-17.96)"/><polygon class="cls-3" points="257.73 378.62 258.63 378.32 308.86 532.96 307.97 533.26 257.73 378.62"/><rect x="283.42" y="374.3" width="0.93" height="162.59" transform="translate(-126.63 109.71) rotate(-17.96)"/><rect x="284.02" y="374.11" width="0.93" height="162.59" transform="translate(-126.54 109.88) rotate(-17.96)"/><rect x="284.61" y="373.91" width="0.93" height="162.59" transform="translate(-126.45 110.06) rotate(-17.96)"/><polygon class="cls-3" points="260.11 377.84 260.99 377.56 311.23 532.19 310.34 532.48 260.11 377.84"/><rect x="285.79" y="373.53" width="0.94" height="162.59" transform="translate(-126.28 110.4) rotate(-17.96)"/><rect x="286.38" y="373.34" width="0.93" height="162.59" transform="translate(-126.18 110.57) rotate(-17.95)"/><rect x="286.98" y="373.15" width="0.94" height="162.59" transform="translate(-125.36 109.86) rotate(-17.83)"/><polygon class="cls-3" points="262.47 377.08 263.36 376.78 313.6 531.42 312.71 531.72 262.47 377.08"/><rect x="288.16" y="372.76" width="0.93" height="162.59" transform="translate(-125.93 111.1) rotate(-17.96)"/><rect x="288.76" y="372.57" width="0.93" height="162.59" transform="translate(-125.84 111.27) rotate(-17.96)"/><rect x="289.35" y="372.38" width="0.93" height="162.59" transform="translate(-125.75 111.45) rotate(-17.96)"/><polygon class="cls-3" points="264.84 376.3 265.74 376.01 315.97 530.65 315.09 530.94 264.84 376.3"/><rect x="290.54" y="371.99" width="0.93" height="162.59" transform="translate(-125.2 111.34) rotate(-17.89)"/><rect x="291.13" y="371.8" width="0.94" height="162.59" transform="translate(-124.74 111.06) rotate(-17.83)"/><rect x="291.72" y="371.6" width="0.93" height="162.59" transform="translate(-125.39 112.14) rotate(-17.96)"/><polygon class="cls-3" points="267.22 375.54 268.11 375.24 318.34 529.88 317.45 530.17 267.22 375.54"/><rect x="292.91" y="371.22" width="0.93" height="162.59" transform="translate(-125.22 112.48) rotate(-17.96)"/><rect x="293.5" y="371.03" width="0.93" height="162.59" transform="translate(-125.13 112.66) rotate(-17.96)"/><rect x="294.09" y="370.83" width="0.93" height="162.59" transform="translate(-125.04 112.83) rotate(-17.96)"/><rect x="294.68" y="370.65" width="0.93" height="162.58" transform="translate(-124.95 113) rotate(-17.96)"/><rect x="295.28" y="370.45" width="0.93" height="162.59" transform="translate(-124.5 112.72) rotate(-17.89)"/><rect x="295.87" y="370.26" width="0.93" height="162.59" transform="translate(-124.78 113.35) rotate(-17.96)"/><rect x="296.46" y="370.06" width="0.93" height="162.59" transform="translate(-123.75 112.36) rotate(-17.8)"/><polygon class="cls-3" points="271.96 374 272.85 373.7 323.08 528.34 322.19 528.64 271.96 374"/><rect x="297.64" y="369.68" width="0.93" height="162.59" transform="translate(-124.51 113.87) rotate(-17.96)"/><rect x="298.24" y="369.49" width="0.93" height="162.59" transform="translate(-124.79 114.51) rotate(-18.02)"/><polygon class="cls-3" points="273.74 373.42 274.63 373.13 324.86 527.76 323.97 528.05 273.74 373.42"/><polygon class="cls-3" points="274.32 373.22 275.22 372.94 325.46 527.57 324.56 527.86 274.32 373.22"/><polygon class="cls-3" points="274.92 373.04 275.81 372.75 326.05 527.37 325.16 527.67 274.92 373.04"/><rect x="300.61" y="368.72" width="0.93" height="162.59" transform="translate(-124.07 114.74) rotate(-17.96)"/><rect x="301.2" y="368.53" width="0.93" height="162.59" transform="translate(-123.98 114.9) rotate(-17.96)"/><polygon class="cls-3" points="276.7 372.46 277.59 372.16 327.83 526.8 326.94 527.1 276.7 372.46"/><rect x="302.39" y="368.14" width="0.93" height="162.59" transform="translate(-123.8 115.25) rotate(-17.96)"/><rect x="302.98" y="367.95" width="0.93" height="162.59" transform="translate(-123.36 114.97) rotate(-17.89)"/><rect x="303.57" y="367.75" width="0.93" height="162.59" transform="translate(-123.07 114.89) rotate(-17.86)"/><rect x="304.17" y="367.56" width="0.93" height="162.59" transform="translate(-123.54 115.78) rotate(-17.96)"/><rect x="304.76" y="367.37" width="0.93" height="162.59" transform="translate(-123.45 115.95) rotate(-17.96)"/><rect x="305.35" y="367.18" width="0.93" height="162.59" transform="translate(-123.36 116.12) rotate(-17.96)"/><rect x="305.94" y="366.98" width="0.94" height="162.59" transform="translate(-123.27 116.3) rotate(-17.96)"/><polygon class="cls-3" points="281.44 370.92 282.33 370.62 332.57 525.26 331.67 525.55 281.44 370.92"/><rect x="307.13" y="366.6" width="0.93" height="162.59" transform="translate(-123.09 116.63) rotate(-17.95)"/><rect x="307.72" y="366.41" width="0.93" height="162.59" transform="translate(-123.01 116.82) rotate(-17.96)"/><rect x="308.31" y="366.21" width="0.93" height="162.59" transform="translate(-122.56 116.52) rotate(-17.89)"/><polygon class="cls-3" points="283.81 370.15 284.7 369.86 334.94 524.5 334.05 524.78 283.81 370.15"/><rect x="309.5" y="365.83" width="0.93" height="162.59" transform="translate(-123.11 117.81) rotate(-18.02)"/><rect x="310.09" y="365.64" width="0.93" height="162.59" transform="translate(-122.66 117.51) rotate(-17.96)"/><rect x="310.69" y="365.44" width="0.93" height="162.59" transform="translate(-122.22 117.22) rotate(-17.89)"/><polygon class="cls-3" points="286.18 369.38 287.07 369.08 337.31 523.72 336.42 524.01 286.18 369.38"/><rect x="311.87" y="365.06" width="0.93" height="162.59" transform="translate(-122.4 118.03) rotate(-17.96)"/><rect x="312.46" y="364.87" width="0.93" height="162.59" transform="translate(-122.31 118.21) rotate(-17.96)"/><rect x="313.05" y="364.67" width="0.93" height="162.59" transform="translate(-122.22 118.38) rotate(-17.96)"/><polygon class="cls-3" points="288.55 368.6 289.44 368.32 339.68 522.95 338.79 523.24 288.55 368.6"/><rect x="314.24" y="364.29" width="0.94" height="162.59" transform="matrix(0.95, -0.31, 0.31, 0.95, -122.04, 118.73)"/><rect x="314.83" y="364.1" width="0.93" height="162.59" transform="translate(-121.95 118.9) rotate(-17.96)"/><rect x="315.42" y="363.9" width="0.93" height="162.59" transform="translate(-121.51 118.6) rotate(-17.89)"/><polygon class="cls-3" points="290.92 367.84 291.81 367.54 342.05 522.18 341.16 522.47 290.92 367.84"/><polygon class="cls-3" points="291.51 367.64 292.4 367.36 342.64 521.99 341.75 522.28 291.51 367.64"/><rect x="317.2" y="363.33" width="0.93" height="162.59" transform="translate(-121.59 119.58) rotate(-17.95)"/><polygon class="cls-3" points="292.7 367.25 293.59 366.97 343.83 521.6 342.94 521.89 292.7 367.25"/><rect x="318.39" y="362.94" width="0.93" height="162.59" transform="translate(-121.42 119.94) rotate(-17.96)"/><polygon class="cls-3" points="293.88 366.88 294.78 366.59 345.01 521.22 344.12 521.51 293.88 366.88"/><rect x="319.58" y="362.56" width="0.93" height="162.59" transform="translate(-120.71 119.55) rotate(-17.86)"/><rect x="320.17" y="362.36" width="0.93" height="162.59" transform="translate(-121.16 120.46) rotate(-17.96)"/><polygon class="cls-3" points="295.66 366.3 296.55 366 346.79 520.64 345.9 520.93 295.66 366.3"/><rect x="321.35" y="361.98" width="0.93" height="162.59" transform="translate(-120.99 120.81) rotate(-17.96)"/><rect x="321.94" y="361.79" width="0.93" height="162.59" transform="matrix(0.95, -0.31, 0.31, 0.95, -120.9, 120.98)"/><rect x="322.54" y="361.59" width="0.93" height="162.59" transform="translate(-120.81 121.15) rotate(-17.96)"/><polygon class="cls-3" points="298.03 365.53 298.92 365.23 349.16 519.88 348.27 520.16 298.03 365.53"/><rect x="323.72" y="361.21" width="0.93" height="162.59" transform="translate(-120.28 121.02) rotate(-17.89)"/><rect x="324.31" y="361.02" width="0.93" height="162.59" transform="matrix(0.95, -0.31, 0.31, 0.95, -120.54, 121.67)"/><rect x="324.91" y="360.82" width="0.93" height="162.59" transform="matrix(0.95, -0.31, 0.31, 0.95, -120.45, 121.85)"/><polygon class="cls-3" points="300.4 364.76 301.29 364.46 351.53 519.1 350.64 519.39 300.4 364.76"/><rect x="326.09" y="360.44" width="0.93" height="162.59" transform="translate(-120.28 122.19) rotate(-17.96)"/><rect x="326.68" y="360.25" width="0.93" height="162.59" transform="translate(-120.19 122.37) rotate(-17.96)"/><rect x="327.28" y="360.05" width="0.93" height="162.59" transform="translate(-120.09 122.53) rotate(-17.96)"/><rect x="327.87" y="359.86" width="0.93" height="162.59" transform="translate(-120.01 122.71) rotate(-17.96)"/><polygon class="cls-3" points="303.37 363.8 304.26 363.51 354.49 518.13 353.61 518.43 303.37 363.8"/><rect x="329.06" y="359.48" width="0.93" height="162.59" transform="matrix(0.95, -0.31, 0.31, 0.95, -119.49, 122.57)"/><polygon class="cls-3" points="304.55 363.41 305.44 363.12 355.68 517.75 354.79 518.04 304.55 363.41"/><polygon class="cls-3" points="305.14 363.21 306.03 362.92 356.27 517.56 355.38 517.85 305.14 363.21"/><rect x="330.83" y="358.9" width="0.93" height="162.59" transform="translate(-119.23 123.09) rotate(-17.89)"/><rect x="331.43" y="358.71" width="0.93" height="162.59" transform="translate(-119.14 123.26) rotate(-17.89)"/><rect x="332.02" y="358.51" width="0.93" height="162.59" transform="translate(-119.4 123.93) rotate(-17.96)"/><rect x="332.61" y="358.32" width="0.93" height="162.59" transform="matrix(0.95, -0.31, 0.31, 0.95, -119.31, 124.1)"/><rect x="333.2" y="358.13" width="0.93" height="162.59" transform="translate(-119.21 124.26) rotate(-17.96)"/><rect x="333.8" y="357.94" width="0.93" height="162.59" transform="translate(-119.13 124.45) rotate(-17.96)"/><rect x="334.39" y="357.74" width="0.93" height="162.59" transform="matrix(0.95, -0.31, 0.31, 0.95, -119.04, 124.62)"/><rect x="334.98" y="357.55" width="0.94" height="162.59" transform="translate(-118.27 123.81) rotate(-17.83)"/><rect x="335.57" y="357.36" width="0.94" height="162.6" transform="translate(-121.13 128.28) rotate(-18.37)"/><rect x="336.17" y="357.17" width="0.93" height="162.59" transform="matrix(0.95, -0.31, 0.31, 0.95, -118.78, 125.14)"/><rect x="336.76" y="356.97" width="0.93" height="162.59" transform="translate(-119.03 125.81) rotate(-18.02)"/><polygon class="cls-3" points="312.26 360.91 313.15 360.61 363.38 515.25 362.49 515.53 312.26 360.91"/><polygon class="cls-3" points="312.85 360.71 313.74 360.43 363.98 515.06 363.08 515.35 312.85 360.71"/><rect x="338.53" y="356.4" width="0.94" height="162.59" transform="translate(-118.43 125.83) rotate(-17.96)"/><polygon class="cls-3" points="314.03 360.32 314.92 360.04 365.16 514.67 364.27 514.96 314.03 360.32"/><rect x="339.72" y="356.01" width="0.93" height="162.59" transform="translate(-118.25 126.18) rotate(-17.96)"/><polygon class="cls-3" points="315.22 359.94 316.11 359.65 366.35 514.28 365.46 514.58 315.22 359.94"/><rect x="340.91" y="355.63" width="0.93" height="162.59" transform="translate(-118.07 126.52) rotate(-17.96)"/><rect x="341.5" y="355.43" width="0.93" height="162.59" transform="translate(-117.98 126.7) rotate(-17.96)"/><rect x="342.09" y="355.24" width="0.93" height="162.59" transform="translate(-117.89 126.86) rotate(-17.95)"/><rect x="342.69" y="355.05" width="0.93" height="162.59" transform="translate(-117.81 127.04) rotate(-17.96)"/><rect x="343.28" y="354.86" width="0.93" height="162.59" transform="translate(-117.38 126.71) rotate(-17.89)"/><rect x="343.87" y="354.66" width="0.93" height="162.59" transform="translate(-117.3 126.89) rotate(-17.89)"/><rect x="344.46" y="354.47" width="0.93" height="162.59" transform="translate(-117.54 127.57) rotate(-17.96)"/><polygon class="cls-3" points="319.96 358.4 320.85 358.11 371.08 512.74 370.2 513.04 319.96 358.4"/><rect x="345.65" y="354.09" width="0.93" height="162.59" transform="translate(-117.37 127.91) rotate(-17.96)"/><polygon class="cls-3" points="321.14 358.01 322.04 357.73 372.27 512.36 371.38 512.65 321.14 358.01"/><rect x="346.84" y="353.7" width="0.94" height="162.59" transform="translate(-116.53 127.26) rotate(-17.83)"/><rect x="347.43" y="353.51" width="0.93" height="162.59" transform="translate(-117.1 128.43) rotate(-17.96)"/><rect x="348.02" y="353.32" width="0.93" height="162.59" transform="translate(-116.68 128.1) rotate(-17.89)"/><rect x="348.61" y="353.12" width="0.93" height="162.59" transform="translate(-116.92 128.78) rotate(-17.96)"/><rect x="349.21" y="352.93" width="0.93" height="162.59" transform="translate(-116.83 128.95) rotate(-17.96)"/><polygon class="cls-3" points="324.7 356.86 325.59 356.57 375.83 511.2 374.94 511.5 324.7 356.86"/><rect x="350.39" y="352.55" width="0.93" height="162.59" transform="translate(-116.99 129.81) rotate(-18.02)"/><rect x="350.98" y="352.35" width="0.93" height="162.59" transform="translate(-116.24 128.96) rotate(-17.89)"/><polygon class="cls-3" points="326.48 356.29 327.37 355.99 377.61 510.63 376.72 510.92 326.48 356.29"/><polygon class="cls-3" points="327.07 356.09 327.96 355.81 378.2 510.44 377.31 510.72 327.07 356.09"/><rect x="352.76" y="351.78" width="0.93" height="162.59" transform="translate(-116.31 129.99) rotate(-17.96)"/><rect x="353.35" y="351.58" width="0.93" height="162.59" transform="translate(-116.21 130.15) rotate(-17.95)"/><rect x="353.94" y="351.39" width="0.93" height="162.59" transform="translate(-116.13 130.34) rotate(-17.96)"/><polygon class="cls-3" points="329.44 355.32 330.33 355.03 380.57 509.66 379.68 509.96 329.44 355.32"/><rect x="355.13" y="351.01" width="0.94" height="162.59" transform="translate(-115.3 129.67) rotate(-17.83)"/><rect x="355.72" y="350.81" width="0.93" height="162.59" transform="translate(-115.54 130.35) rotate(-17.89)"/><rect x="356.32" y="350.62" width="0.93" height="162.59" transform="translate(-115.78 131.03) rotate(-17.96)"/><rect x="356.91" y="350.43" width="0.93" height="162.59" transform="translate(-115.69 131.21) rotate(-17.96)"/><rect x="357.5" y="350.24" width="0.93" height="162.59" transform="translate(-115.6 131.38) rotate(-17.96)"/><rect x="358.1" y="350.04" width="0.93" height="162.59" transform="translate(-115.51 131.54) rotate(-17.96)"/><rect x="358.69" y="349.85" width="0.93" height="162.59" transform="translate(-115.1 131.21) rotate(-17.89)"/><polygon class="cls-3" points="334.18 353.78 335.07 353.49 385.31 508.12 384.42 508.42 334.18 353.78"/><rect x="359.87" y="349.47" width="0.93" height="162.59" transform="translate(-115.25 132.07) rotate(-17.96)"/><rect x="360.47" y="349.27" width="0.93" height="162.59" transform="translate(-115.16 132.24) rotate(-17.96)"/><polygon class="cls-3" points="335.96 353.21 336.85 352.91 387.09 507.55 386.2 507.83 335.96 353.21"/><rect x="361.65" y="348.89" width="0.93" height="162.59" transform="translate(-114.98 132.59) rotate(-17.96)"/><rect x="362.24" y="348.7" width="0.93" height="162.59" transform="translate(-114.9 132.76) rotate(-17.96)"/><rect x="362.84" y="348.5" width="0.93" height="162.59" transform="translate(-114.81 132.94) rotate(-17.96)"/><rect x="363.43" y="348.31" width="0.93" height="162.59" transform="translate(-114.4 132.59) rotate(-17.89)"/><polygon class="cls-3" points="338.92 352.24 339.81 351.95 390.05 506.58 389.16 506.88 338.92 352.24"/><rect x="364.61" y="347.93" width="0.93" height="162.59" transform="translate(-114.54 133.46) rotate(-17.96)"/><rect x="365.21" y="347.73" width="0.93" height="162.59" transform="translate(-114.45 133.63) rotate(-17.96)"/><polygon class="cls-3" points="340.7 351.67 341.59 351.37 391.83 506.01 390.94 506.3 340.7 351.67"/><polygon class="cls-3" points="341.3 351.47 342.18 351.19 392.42 505.82 391.53 506.1 341.3 351.47"/><polygon class="cls-3" points="341.88 351.28 342.78 350.99 393.01 505.63 392.12 505.91 341.88 351.28"/><rect x="367.58" y="346.96" width="0.94" height="162.59" transform="translate(-113.47 133.28) rotate(-17.83)"/><rect x="368.17" y="346.77" width="0.94" height="162.59" transform="translate(-113.37 133.45) rotate(-17.83)"/><polygon class="cls-3" points="343.67 350.7 344.55 350.41 394.79 505.04 393.9 505.34 343.67 350.7"/><rect x="369.36" y="346.39" width="0.93" height="162.59" transform="translate(-113.83 134.84) rotate(-17.96)"/><rect x="369.95" y="346.19" width="0.93" height="162.59" transform="matrix(0.95, -0.31, 0.31, 0.95, -113.75, 135.02)"/><rect x="370.54" y="346" width="0.93" height="162.59" transform="translate(-113.66 135.19) rotate(-17.96)"/><rect x="371.13" y="345.81" width="0.93" height="162.59" transform="translate(-113.26 134.84) rotate(-17.89)"/><rect x="371.72" y="345.62" width="0.93" height="162.59" transform="translate(-113.17 135.01) rotate(-17.89)"/><rect x="372.32" y="345.42" width="0.93" height="162.59" transform="translate(-113.39 135.71) rotate(-17.96)"/><rect x="372.91" y="345.23" width="0.93" height="162.59" transform="translate(-113.31 135.88) rotate(-17.96)"/><polygon class="cls-3" points="348.41 349.16 349.3 348.88 399.53 503.5 398.64 503.8 348.41 349.16"/><rect x="374.09" y="344.85" width="0.93" height="162.59" transform="translate(-113.12 136.22) rotate(-17.95)"/><rect x="374.69" y="344.65" width="0.93" height="162.59" transform="translate(-113.04 136.4) rotate(-17.96)"/><rect x="375.28" y="344.46" width="0.93" height="162.59" transform="translate(-115.35 140.66) rotate(-18.43)"/><rect x="375.87" y="344.27" width="0.93" height="162.59" transform="translate(-112.87 136.75) rotate(-17.96)"/><polygon class="cls-3" points="351.37 348.2 352.26 347.91 402.5 502.55 401.61 502.83 351.37 348.2"/><rect x="377.06" y="343.88" width="0.93" height="162.59" transform="translate(-112.69 137.1) rotate(-17.96)"/><polygon class="cls-3" points="352.56 347.81 353.44 347.52 403.69 502.16 402.79 502.44 352.56 347.81"/><polygon class="cls-3" points="353.15 347.62 354.04 347.33 404.27 501.96 403.38 502.26 353.15 347.62"/><rect x="378.84" y="343.31" width="0.93" height="162.59" transform="translate(-112.43 137.62) rotate(-17.96)"/><rect x="379.43" y="343.11" width="0.93" height="162.59" transform="matrix(0.95, -0.31, 0.31, 0.95, -112.03, 137.26)"/><rect x="380.02" y="342.92" width="0.93" height="162.59" transform="translate(-114.62 142.09) rotate(-18.43)"/><polygon class="cls-3" points="355.52 346.85 356.41 346.56 406.64 501.2 405.75 501.48 355.52 346.85"/><rect x="381.21" y="342.54" width="0.93" height="162.59" transform="translate(-112.07 138.31) rotate(-17.96)"/><rect x="381.8" y="342.34" width="0.93" height="162.59" transform="translate(-111.99 138.49) rotate(-17.96)"/><rect x="382.39" y="342.15" width="0.93" height="162.59" transform="translate(-111.9 138.66) rotate(-17.96)"/><polygon class="cls-3" points="357.89 346.08 358.78 345.79 409.01 500.42 408.13 500.72 357.89 346.08"/><rect x="383.58" y="341.77" width="0.93" height="162.59" transform="translate(-111.41 138.47) rotate(-17.89)"/><rect x="384.17" y="341.57" width="0.93" height="162.59" transform="translate(-111.32 138.63) rotate(-17.89)"/><rect x="384.76" y="341.38" width="0.93" height="162.59" transform="translate(-111.24 138.81) rotate(-17.89)"/><rect x="385.36" y="341.19" width="0.93" height="162.59" transform="translate(-111.14 138.97) rotate(-17.89)"/><rect x="385.95" y="341" width="0.94" height="162.59" transform="translate(-111.37 139.7) rotate(-17.96)"/><rect x="386.54" y="340.8" width="0.93" height="162.59" transform="translate(-111.28 139.87) rotate(-17.96)"/><polygon class="cls-3" points="362.04 344.73 362.93 344.44 413.16 499.08 412.27 499.36 362.04 344.73"/><rect x="387.73" y="340.42" width="0.93" height="162.59" transform="translate(-111.1 140.22) rotate(-17.96)"/><rect x="388.32" y="340.23" width="0.94" height="162.59" transform="translate(-110.41 139.31) rotate(-17.83)"/><rect x="388.91" y="340.03" width="0.93" height="162.59" transform="translate(-110.92 140.56) rotate(-17.96)"/><rect x="389.5" y="339.84" width="0.93" height="162.59" transform="translate(-110.84 140.74) rotate(-17.96)"/><rect x="390.1" y="339.65" width="0.93" height="162.59" transform="translate(-110.75 140.9) rotate(-17.96)"/><rect x="390.69" y="339.45" width="0.93" height="162.59" transform="translate(-110.66 141.09) rotate(-17.96)"/><rect x="391.28" y="339.26" width="0.93" height="162.59" transform="translate(-110.27 140.72) rotate(-17.89)"/><rect x="391.87" y="339.07" width="0.93" height="162.59" transform="translate(-110.18 140.89) rotate(-17.89)"/><polygon class="cls-3" points="367.37 343 368.26 342.71 418.5 497.34 417.61 497.64 367.37 343"/><rect x="393.06" y="338.69" width="0.93" height="162.59" transform="translate(-110.31 141.78) rotate(-17.96)"/><rect x="393.65" y="338.49" width="0.93" height="162.59" transform="translate(-110.22 141.95) rotate(-17.96)"/><rect x="394.24" y="338.3" width="0.93" height="162.59" transform="translate(-110.13 142.11) rotate(-17.96)"/><polygon class="cls-3" points="369.74 342.23 370.63 341.94 420.87 496.58 419.98 496.86 369.74 342.23"/><rect x="395.43" y="337.92" width="0.93" height="162.59" transform="translate(-109.96 142.47) rotate(-17.96)"/><rect x="396.02" y="337.72" width="0.93" height="162.59" transform="translate(-110.17 143.19) rotate(-18.02)"/><rect x="396.62" y="337.53" width="0.93" height="162.59" transform="matrix(0.95, -0.31, 0.31, 0.95, -109.78, 142.82)"/><polygon class="cls-3" points="372.11 341.46 373 341.17 423.25 495.8 422.35 496.1 372.11 341.46"/><polygon class="cls-3" points="372.7 341.27 373.59 340.98 423.84 495.62 422.94 495.9 372.7 341.27"/><rect x="398.39" y="336.95" width="0.93" height="162.59" transform="translate(-109.51 143.34) rotate(-17.96)"/><rect x="398.98" y="336.76" width="0.93" height="162.59" transform="translate(-109.42 143.5) rotate(-17.95)"/><polygon class="cls-3" points="374.48 340.69 375.37 340.39 425.61 495.03 424.71 495.33 374.48 340.69"/><rect x="400.17" y="336.38" width="0.94" height="162.59" transform="translate(-109.25 143.85) rotate(-17.96)"/><rect x="400.76" y="336.18" width="0.94" height="162.59" transform="translate(-109.16 144.03) rotate(-17.96)"/><polygon class="cls-3" points="376.26 340.11 377.15 339.82 427.39 494.46 426.49 494.74 376.26 340.11"/><polygon class="cls-3" points="376.85 339.91 377.74 339.63 427.98 494.26 427.09 494.56 376.85 339.91"/><polygon class="cls-3" points="377.44 339.73 378.33 339.44 428.58 494.07 427.68 494.36 377.44 339.73"/><polygon class="cls-3" points="378.04 339.53 378.93 339.24 429.17 493.88 428.27 494.17 378.04 339.53"/><polygon class="cls-3" points="378.63 339.34 379.52 339.05 429.76 493.68 428.86 493.97 378.63 339.34"/><polygon class="cls-3" points="379.22 339.15 380.11 338.86 430.35 493.49 429.45 493.79 379.22 339.15"/><polygon class="cls-3" points="379.82 338.96 380.7 338.67 430.94 493.31 430.05 493.59 379.82 338.96"/><polygon class="cls-3" points="380.41 338.76 381.3 338.48 431.54 493.11 430.64 493.4 380.41 338.76"/><polygon class="cls-3" points="381 338.57 381.89 338.28 432.13 492.92 431.23 493.2 381 338.57"/><rect x="406.69" y="334.25" width="0.93" height="162.59" transform="translate(-108.28 145.77) rotate(-17.96)"/><polygon class="cls-3" points="382.19 338.19 383.07 337.9 433.31 492.53 432.42 492.82 382.19 338.19"/><polygon class="cls-3" points="382.78 337.99 383.67 337.7 433.91 492.34 433.01 492.63 382.78 337.99"/><rect x="408.47" y="333.68" width="0.93" height="162.59" transform="translate(-108.01 146.28) rotate(-17.96)"/><rect x="409.06" y="333.49" width="0.94" height="162.59" transform="translate(-109.85 150.21) rotate(-18.37)"/><rect x="409.65" y="333.3" width="0.93" height="162.59" transform="translate(-108.13 147.19) rotate(-18.02)"/><rect x="410.25" y="333.13" width="0.74" height="162.59" transform="translate(-107.2 145.68) rotate(-17.84)"/></g><path d="M207.19,425.93h16.47q19.59,0,19.58-19.17a16.56,16.56,0,0,0-4.66-12.17q-4.67-4.71-13.15-4.71a18.93,18.93,0,0,0-12.07,4A12.32,12.32,0,0,0,208.23,404H173.32A35.76,35.76,0,0,1,180,382.73a43.76,43.76,0,0,1,18.39-14.55A62.78,62.78,0,0,1,224.18,363q25.17,0,39.57,11.49t14.4,31.6a31.88,31.88,0,0,1-5.95,18.39q-6,8.64-17.36,14,12,4.35,18.86,13.21t6.83,21.91q0,20.19-15.54,32.32T224.18,518a66.79,66.79,0,0,1-27.5-5.65q-12.69-5.64-19.22-15.64A40.65,40.65,0,0,1,170.94,474h35.12a15.71,15.71,0,0,0,5.59,12,19.72,19.72,0,0,0,13.78,5.07q9.21,0,14.71-5.12a17.14,17.14,0,0,0,5.48-13.11q0-11.39-5.69-16.16t-15.75-4.76h-17Z"/><path d="M184.52,560.65l14,39.48,13.91-39.48h14.73v54.43H215.88V600.2L217,574.52l-14.69,40.56h-7.7L180,574.56l1.12,25.64v14.88H169.87V560.65Z"/><path d="M271.21,615.08a11.89,11.89,0,0,1-1.08-3.63,13.06,13.06,0,0,1-10.2,4.37,14.35,14.35,0,0,1-9.85-3.43,11.07,11.07,0,0,1-3.91-8.68,11.42,11.42,0,0,1,4.77-9.86q4.76-3.45,13.77-3.48h5v-2.32a6.64,6.64,0,0,0-1.44-4.48,5.66,5.66,0,0,0-4.54-1.69,6.44,6.44,0,0,0-4.28,1.31,4.47,4.47,0,0,0-1.55,3.59h-10.8a10.86,10.86,0,0,1,2.16-6.5,14.26,14.26,0,0,1,6.14-4.69,22.2,22.2,0,0,1,8.89-1.7q7.47,0,11.87,3.75t4.39,10.56v17.53c0,3.84.56,6.74,1.61,8.71v.64Zm-8.93-7.52a9.3,9.3,0,0,0,4.41-1.06,7,7,0,0,0,3-2.86v-6.95h-4q-8.1,0-8.63,5.6l0,.64a4.38,4.38,0,0,0,1.42,3.33A5.54,5.54,0,0,0,262.28,607.56Z"/><path d="M336.78,595.23q0,9.35-4.24,15a13.6,13.6,0,0,1-11.45,5.62,12.61,12.61,0,0,1-9.91-4.26v19.07h-10.8v-56h10l.37,4A12.7,12.7,0,0,1,321,573.89q7.47,0,11.63,5.53t4.14,15.25Zm-10.8-.79c0-3.76-.66-6.66-2-8.71a6.51,6.51,0,0,0-5.81-3.06q-5.09,0-7,3.89v16.56q2,4,7.07,4Q326,607.11,326,594.44Z"/><path d="M429.09,597q-.63,8.77-6.48,13.83t-15.42,5q-10.47,0-16.47-7t-6-19.34v-3.33a32.55,32.55,0,0,1,2.77-13.83,20.72,20.72,0,0,1,7.9-9.18,22.17,22.17,0,0,1,11.95-3.19q9.42,0,15.17,5t6.66,14.17H418q-.4-5.26-2.93-7.65t-7.68-2.37q-5.61,0-8.39,4t-2.86,12.47v4.11q0,8.82,2.67,12.89t8.43,4.08c3.46,0,6.05-.79,7.75-2.38s2.69-4,2.94-7.34Z"/><path d="M457.85,579a13.48,13.48,0,0,1,10.8-5.15q13.16,0,13.34,15.28v25.91h-10.8V589.47q0-3.48-1.5-5.14t-5-1.66a7.35,7.35,0,0,0-6.87,3.66v28.75H447V557.66h10.81Z"/><path d="M525.14,615.08a12.17,12.17,0,0,1-1.09-3.63,13,13,0,0,1-10.2,4.37,14.35,14.35,0,0,1-9.85-3.43,11.07,11.07,0,0,1-3.91-8.68,11.42,11.42,0,0,1,4.77-9.86c3.17-2.3,7.77-3.46,13.77-3.48h5v-2.32a6.64,6.64,0,0,0-1.44-4.48,5.66,5.66,0,0,0-4.54-1.69,6.46,6.46,0,0,0-4.28,1.31,4.47,4.47,0,0,0-1.55,3.59H501a10.81,10.81,0,0,1,2.17-6.5,14.23,14.23,0,0,1,6.13-4.69,22.2,22.2,0,0,1,8.89-1.7q7.49,0,11.87,3.75t4.39,10.56v17.53c0,3.84.56,6.74,1.61,8.71v.64Zm-8.94-7.52a9.27,9.27,0,0,0,4.41-1.06,7,7,0,0,0,3-2.86v-6.95h-4q-8.12,0-8.64,5.6l0,.64a4.35,4.35,0,0,0,1.43,3.33A5.5,5.5,0,0,0,516.2,607.56Z"/><path d="M565.7,615.08H554.86V557.66H565.7Z"/><path d="M597.56,615.08H586.72V557.66h10.84Z"/><path d="M636.63,615.82q-8.89,0-14.49-5.45t-5.59-14.54v-1.05a24.48,24.48,0,0,1,2.36-10.9,17.32,17.32,0,0,1,6.67-7.4,18.74,18.74,0,0,1,9.85-2.59q8.3,0,13.06,5.23T653.26,594v4.41H627.51a10,10,0,0,0,3.15,6.35,9.55,9.55,0,0,0,6.68,2.39,11.63,11.63,0,0,0,9.75-4.52l5.31,5.95a16.18,16.18,0,0,1-6.58,5.36A21.6,21.6,0,0,1,636.63,615.82Zm-1.24-33.23a6.75,6.75,0,0,0-5.21,2.18,11.27,11.27,0,0,0-2.56,6.24h15v-.87a8,8,0,0,0-1.94-5.57A7,7,0,0,0,635.39,582.59Z"/><path d="M680.89,574.63l.34,4.68a14.09,14.09,0,0,1,11.62-5.42q6.43,0,9.57,3.77T705.64,589v26.13h-10.8V589.21c0-2.29-.5-4-1.5-5s-2.65-1.55-5-1.55a7.44,7.44,0,0,0-6.84,3.89v28.52h-10.8V574.63Z"/><path d="M723.81,594.56q0-9.31,4.43-15a14.35,14.35,0,0,1,11.94-5.68q6.66,0,10.36,4.56l.45-3.82h9.79v39.1a17.23,17.23,0,0,1-2.41,9.23,15.46,15.46,0,0,1-6.79,6A23.81,23.81,0,0,1,741.34,631a22.09,22.09,0,0,1-8.67-1.78,15.42,15.42,0,0,1-6.39-4.57l4.78-6.58a12.69,12.69,0,0,0,9.8,4.52,9.29,9.29,0,0,0,6.69-2.3,8.64,8.64,0,0,0,2.39-6.52V611.6a12.48,12.48,0,0,1-9.83,4.22,14.3,14.3,0,0,1-11.79-5.7q-4.52-5.7-4.51-15.12Zm10.8.8q0,5.5,2.21,8.63a7,7,0,0,0,6.06,3.12q4.93,0,7.06-3.7v-17c-1.45-2.47-3.77-3.71-7-3.71a7.06,7.06,0,0,0-6.11,3.18C735.36,588,734.61,591.14,734.61,595.36Z"/><path d="M799.25,615.82q-8.89,0-14.48-5.45t-5.59-14.54v-1.05a24.48,24.48,0,0,1,2.35-10.9,17.34,17.34,0,0,1,6.68-7.4,18.72,18.72,0,0,1,9.85-2.59q8.3,0,13.06,5.23T815.89,594v4.41H790.13a10,10,0,0,0,3.16,6.35,9.53,9.53,0,0,0,6.67,2.39,11.65,11.65,0,0,0,9.76-4.52l5.31,5.95a16.25,16.25,0,0,1-6.58,5.36A21.65,21.65,0,0,1,799.25,615.82ZM798,582.59a6.78,6.78,0,0,0-5.22,2.18,11.34,11.34,0,0,0-2.56,6.24h15v-.87a8.05,8.05,0,0,0-1.94-5.57A7,7,0,0,0,798,582.59Z"/><path d="M448.3,512.7V367.15h44.79q19.19,0,34.33,8.65a60.29,60.29,0,0,1,23.65,24.59q8.49,15.94,8.49,36.23v6.7q0,20.3-8.35,36.09a59.75,59.75,0,0,1-23.54,24.49q-15.2,8.7-34.28,8.8Zm30-121.26v97.17h14.5q17.59,0,26.89-11.5t9.49-32.89v-7.7q0-22.18-9.19-33.63t-26.89-11.45Z"/><path d="M661.42,482.71H608.84l-10,30H567l54.18-145.55h27.79L703.41,512.7H671.52Zm-44.48-24.29h36.39L635,403.94Z"/><path d="M752.19,432.73l30.29-65.58h32.79l-47.79,92.77V512.7H737V459.92l-47.79-92.77H722.1Z"/></g></svg>