<svg xmlns="http://www.w3.org/2000/svg" xmlns:xlink="http://www.w3.org/1999/xlink" viewBox="0 0 987 557"><defs><style>.cls-1{fill:#f2e6eb;}.cls-2{fill:#2a3234;}.cls-3{fill-rule:evenodd;fill:url(#linear-gradient);}</style><linearGradient id="linear-gradient" x1="243.61" y1="276.7" x2="375.52" y2="144.79" gradientUnits="userSpaceOnUse"><stop offset="0" stop-color="#2a3234"/><stop offset="0.19" stop-color="#3d3f42"/><stop offset="0.73" stop-color="#6d5f68"/><stop offset="1" stop-color="#806c76"/></linearGradient></defs><g id="Layer_1" data-name="Layer 1"><rect class="cls-1" x="-18.58" y="-12.37" width="1015.58" height="580.37"/><path class="cls-2" d="M137.87,353.31,154,398.83l16-45.52h17v62.76H174V398.92l1.3-29.62-17,46.77h-8.88l-16.89-46.73,1.29,29.58v17.15H121V353.31Z"/><path class="cls-2" d="M237.85,416.07a14,14,0,0,1-1.25-4.18,15.07,15.07,0,0,1-11.76,5.05,16.58,16.58,0,0,1-11.36-4A12.74,12.74,0,0,1,209,403q0-7.41,5.5-11.38t15.88-4h5.74v-2.67a7.74,7.74,0,0,0-1.66-5.18q-1.67-1.94-5.24-1.94a7.48,7.48,0,0,0-4.94,1.51,5.15,5.15,0,0,0-1.79,4.14H210a12.5,12.5,0,0,1,2.5-7.5,16.48,16.48,0,0,1,7.07-5.41,25.68,25.68,0,0,1,10.26-2q8.61,0,13.68,4.33t5.07,12.18V405.3q0,6.63,1.85,10v.73Zm-10.3-8.66a10.73,10.73,0,0,0,5.09-1.23,8.11,8.11,0,0,0,3.45-3.3v-8h-4.66c-6.24,0-9.55,2.16-10,6.47l0,.73a5,5,0,0,0,1.64,3.84A6.34,6.34,0,0,0,227.55,407.41Z"/><path class="cls-2" d="M313.48,393.18q0,10.79-4.89,17.27a15.72,15.72,0,0,1-13.22,6.49A14.52,14.52,0,0,1,284,412v22H271.49V369.43H283l.43,4.57a14.66,14.66,0,0,1,11.82-5.43q8.61,0,13.4,6.38t4.79,17.59Zm-12.46-.9q0-6.51-2.31-10a7.51,7.51,0,0,0-6.7-3.53q-5.86,0-8.06,4.48v19.1q2.28,4.61,8.15,4.61Q301,406.89,301,392.28Z"/><path class="cls-2" d="M419.93,395.17q-.72,10.13-7.47,15.95t-17.79,5.82q-12.06,0-19-8.13t-6.92-22.31v-3.84a37.75,37.75,0,0,1,3.19-16,24,24,0,0,1,9.12-10.58,25.52,25.52,0,0,1,13.78-3.69q10.86,0,17.5,5.82T420,374.6H407.09q-.48-6.08-3.39-8.81t-8.85-2.74q-6.48,0-9.68,4.63t-3.3,14.38v4.74q0,10.18,3.08,14.87t9.72,4.7q6,0,8.95-2.73c2-1.83,3.09-4.65,3.38-8.47Z"/><path class="cls-2" d="M453.1,374.52a15.52,15.52,0,0,1,12.45-5.95q15.18,0,15.39,17.63v29.87H468.49V386.54q0-4-1.73-5.92T461,378.7q-5.47,0-7.93,4.22v33.15H440.64V349.86H453.1Z"/><path class="cls-2" d="M530.7,416.07a14,14,0,0,1-1.25-4.18,15.08,15.08,0,0,1-11.77,5.05,16.6,16.6,0,0,1-11.36-4,12.76,12.76,0,0,1-4.5-10q0-7.41,5.5-11.38t15.88-4h5.74v-2.67a7.74,7.74,0,0,0-1.66-5.18q-1.66-1.94-5.24-1.94a7.46,7.46,0,0,0-4.94,1.51,5.15,5.15,0,0,0-1.79,4.14H502.85a12.51,12.51,0,0,1,2.51-7.5,16.5,16.5,0,0,1,7.06-5.41,25.75,25.75,0,0,1,10.26-2q8.63,0,13.69,4.33t5.07,12.18V405.3c0,4.42.64,7.77,1.85,10v.73Zm-10.3-8.66a10.75,10.75,0,0,0,5.09-1.23,8.11,8.11,0,0,0,3.45-3.3v-8h-4.66q-9.36,0-10,6.47l0,.73a5,5,0,0,0,1.64,3.84A6.33,6.33,0,0,0,520.4,407.41Z"/><path class="cls-2" d="M577.49,416.07H565V349.86h12.5Z"/><path class="cls-2" d="M614.23,416.07H601.72V349.86h12.51Z"/><path class="cls-2" d="M659.28,416.94q-10.24,0-16.7-6.3t-6.44-16.77v-1.2a28.17,28.17,0,0,1,2.71-12.57,20,20,0,0,1,7.7-8.54,21.65,21.65,0,0,1,11.36-3q9.57,0,15.06,6t5.5,17.12v5.08h-29.7a11.54,11.54,0,0,0,3.64,7.33,11,11,0,0,0,7.69,2.76,13.47,13.47,0,0,0,11.26-5.22l6.12,6.86a18.66,18.66,0,0,1-7.59,6.18A24.77,24.77,0,0,1,659.28,416.94Zm-1.42-38.33a7.8,7.8,0,0,0-6,2.51,13,13,0,0,0-3,7.19h17.33v-1a9.29,9.29,0,0,0-2.25-6.44A8,8,0,0,0,657.86,378.61Z"/><path class="cls-2" d="M710.34,369.43l.38,5.39a16.3,16.3,0,0,1,13.41-6.25q7.41,0,11,4.35t3.7,13v30.13H726.42V386.24q0-4-1.73-5.75c-1.15-1.2-3.06-1.79-5.73-1.79a8.56,8.56,0,0,0-7.89,4.48v32.89H698.61V369.43Z"/><path class="cls-2" d="M759.84,392.41q0-10.74,5.11-17.29a16.53,16.53,0,0,1,13.77-6.55q7.66,0,11.94,5.26l.52-4.4h11.29v45.09a20,20,0,0,1-2.78,10.65,17.83,17.83,0,0,1-7.82,6.9,27.55,27.55,0,0,1-11.82,2.37,25.67,25.67,0,0,1-10-2.05,17.91,17.91,0,0,1-7.37-5.28l5.52-7.59a14.58,14.58,0,0,0,11.29,5.22c3.31,0,5.88-.89,7.72-2.65s2.76-4.28,2.76-7.53v-2.5a14.4,14.4,0,0,1-11.34,4.88,16.52,16.52,0,0,1-13.6-6.58q-5.19-6.57-5.19-17.44Zm12.45.92c0,4.24.85,7.55,2.55,10a8.08,8.08,0,0,0,7,3.6q5.7,0,8.15-4.27V383q-2.51-4.28-8.06-4.27a8.14,8.14,0,0,0-7,3.67Q772.3,386,772.29,393.33Z"/><path class="cls-2" d="M846.84,416.94q-10.26,0-16.7-6.3t-6.45-16.77v-1.2a28.18,28.18,0,0,1,2.72-12.57,20,20,0,0,1,7.69-8.54,21.68,21.68,0,0,1,11.36-3q9.57,0,15.07,6T866,391.72v5.08h-29.7a11.59,11.59,0,0,0,3.64,7.33,11,11,0,0,0,7.7,2.76,13.44,13.44,0,0,0,11.25-5.22l6.12,6.86a18.63,18.63,0,0,1-7.58,6.18A24.77,24.77,0,0,1,846.84,416.94Zm-1.42-38.33a7.78,7.78,0,0,0-6,2.51,13,13,0,0,0-3,7.19h17.33v-1a9.29,9.29,0,0,0-2.24-6.44A8.06,8.06,0,0,0,845.42,378.61Z"/><path class="cls-2" d="M442.09,298V130.14h51.65q22.14,0,39.6,10a69.62,69.62,0,0,1,27.27,28.36q9.79,18.39,9.8,41.79V218q0,23.4-9.63,41.62a68.94,68.94,0,0,1-27.15,28.24q-17.52,10-39.54,10.15Zm34.59-139.84v112h16.71q20.3,0,31-13.25t11-37.93v-8.88q0-25.59-10.61-38.79t-31-13.2Z"/><path class="cls-2" d="M687.88,263.41H627.24L615.71,298H578.94l62.48-167.86h32.05L736.3,298H699.53Zm-51.3-28h42l-21.1-62.83Z"/><path class="cls-2" d="M792.56,205.77l34.94-75.63h37.81l-55.11,107V298H775V237.13l-55.11-107h37.93Z"/><path class="cls-3" d="M286.58,291a5.67,5.67,0,0,1,1.95.33c11.61-15.72,24-25.05,37.69-34.56a7.78,7.78,0,0,1-.61-2.4c-1.33-.11-2.68-.21-4-.29a213.49,213.49,0,0,0-45.36,2.65,12.22,12.22,0,0,1-3.07,8.71A89.45,89.45,0,0,1,286.58,291m-4.72,2.62a6.73,6.73,0,0,1,.76-.95,5.76,5.76,0,0,1,.95-.76,86.39,86.39,0,0,0-12.79-24.39,12.27,12.27,0,0,1-8.21,2,27.65,27.65,0,0,0,.22,4,29.33,29.33,0,0,0,3.73,10.71,5.41,5.41,0,0,1,6.89,6.07A86.24,86.24,0,0,0,281.86,293.61Zm-39.54-30.55a6.22,6.22,0,0,1-1,1.85,85.63,85.63,0,0,0,21.93,19.84,31.71,31.71,0,0,1-3.55-10.85,29.64,29.64,0,0,1-.23-5.16,12.34,12.34,0,0,1-6.77-6.53c-.65.12-1.3.23-2,.32A53.4,53.4,0,0,1,242.32,263.06ZM230.48,238a6.84,6.84,0,0,1-1.12,1.46,7.37,7.37,0,0,1-1.38,1.08,86.59,86.59,0,0,0,6.82,14.77,6.06,6.06,0,0,1,6.06,1.52,6,6,0,0,1,1.66,3.09,48.65,48.65,0,0,0,7.76-.5c.51-.07,1-.14,1.53-.23a12.3,12.3,0,0,1,1.93-8.71,87.07,87.07,0,0,0-19-10.84C233.35,239,231.91,238.5,230.48,238Zm.43-51.25a6.2,6.2,0,0,1-4.58,1.63,86,86,0,0,0-1.78,39.37,6.88,6.88,0,0,1,6.81,7.22c1.54.55,3.09,1.14,4.62,1.77a90.34,90.34,0,0,1,10.54,5.2,91.33,91.33,0,0,1,9.3,6.16,12.36,12.36,0,0,1,6.65-3,82.59,82.59,0,0,0-4.54-23.86,9.21,9.21,0,0,1-8.66-15.46l.5-.47A74.61,74.61,0,0,0,230.91,186.74Zm67.78,19a7.74,7.74,0,0,1,.88-9.9,7.4,7.4,0,0,1,2.41-1.63,100.84,100.84,0,0,0-8.67-23.11,7.86,7.86,0,0,1-7.23-1.2c-.68.65-1.36,1.29-2,1.95a112.75,112.75,0,0,0-23.37,32.63,9.21,9.21,0,0,1,1.6,14.3,9.16,9.16,0,0,1-1.46,1.19,85.68,85.68,0,0,1,4.8,25.14,12.36,12.36,0,0,1,2.85.75A252.55,252.55,0,0,1,298.69,205.77Zm-30.13-65.13a5.73,5.73,0,0,1-7.12-.45,85.69,85.69,0,0,0-26.82,28.62,87.26,87.26,0,0,0-4.21,8.29,6.64,6.64,0,0,1,.7.61,6.24,6.24,0,0,1,1.52,6.4,77.1,77.1,0,0,1,19.84,19.6,9.27,9.27,0,0,1,5.31-.39,115.79,115.79,0,0,1,24.07-33.68c.71-.7,1.43-1.38,2.16-2.07a7.84,7.84,0,0,1,1.17-9.33A107,107,0,0,0,268.56,140.64Zm56.79,155.9a6.58,6.58,0,0,1,6.83-6.49,77.28,77.28,0,0,0,2.1-15.2,72.22,72.22,0,0,0-.76-13.31,7.82,7.82,0,0,1-5.51-2.21c-13.4,9.34-25.59,18.51-36.91,33.8a5.67,5.67,0,0,1,1.23,3.27A85.93,85.93,0,0,0,325.35,296.54Zm19.2-78.44a6.69,6.69,0,1,1-9.45,0A6.69,6.69,0,0,1,344.55,218.1Zm3.7-75.2a5.23,5.23,0,1,1-7.4,0A5.22,5.22,0,0,1,348.25,142.9ZM369.66,177a5.23,5.23,0,1,1-7.4,0A5.24,5.24,0,0,1,369.66,177ZM377,234.56a5.23,5.23,0,1,1-7.4,0A5.24,5.24,0,0,1,377,234.56ZM260.27,166a5.23,5.23,0,1,1-7.4,0A5.22,5.22,0,0,1,260.27,166Zm25.42,28.77a5.23,5.23,0,1,1-7.39,0A5.24,5.24,0,0,1,285.69,194.75Zm16.06-60.88a5.23,5.23,0,1,1-7.39,0A5.22,5.22,0,0,1,301.75,133.87Zm-5.69,129.46a5.23,5.23,0,1,1-7.39,0A5.22,5.22,0,0,1,296.06,263.33Zm21.74-29.77a5.23,5.23,0,1,1-7.39,0A5.22,5.22,0,0,1,317.8,233.56Zm-79.61-25.43a5.23,5.23,0,1,1-7.39,0A5.24,5.24,0,0,1,238.19,208.13Zm84,70.59a5.23,5.23,0,1,1-7.4,0A5.23,5.23,0,0,1,322.16,278.72ZM398,202.08a89.32,89.32,0,0,1-59.47,94.18,6.61,6.61,0,0,1-11.27,5.06,6.28,6.28,0,0,1-1.23-1.71,89.3,89.3,0,0,1-34.44-.13,5.61,5.61,0,0,1-.95,1.24,5.69,5.69,0,0,1-9.71-4.09,89.33,89.33,0,0,1-8.94-3.55l-.12.12a5.41,5.41,0,0,1-9.1-5,88.8,88.8,0,0,1-24.05-21.42,6.06,6.06,0,0,1-6.62-9.78A89.39,89.39,0,0,1,225,241.45a6.87,6.87,0,0,1-5.33-11.71,7.28,7.28,0,0,1,1.84-1.31,89,89,0,0,1,1.85-41,7.05,7.05,0,0,1-1.06-.85,6.26,6.26,0,0,1,5.22-10.63,94.45,94.45,0,0,1,4.4-8.69,89,89,0,0,1,27.89-29.73,5.72,5.72,0,0,1,9.55-5.61l.05.06c2.61-1.3,5.29-2.47,8-3.5a89.27,89.27,0,0,1,55.08-2.83,5.65,5.65,0,0,1,.62-.77,5.24,5.24,0,1,1-1.53,3.78,86.2,86.2,0,0,0-53,2.75c-2.59,1-5.15,2.1-7.64,3.34a5.74,5.74,0,0,1-.33,3.47,110,110,0,0,1,17.23,18.27,7.82,7.82,0,0,1,8.18,1.28,120.18,120.18,0,0,1,24.29-13.62,5.43,5.43,0,1,1,9.26,3.42,5.45,5.45,0,0,1-7.68,0,6.48,6.48,0,0,1-.44-.49,116.72,116.72,0,0,0-23.51,13.18,7.83,7.83,0,0,1-1.5,9l-.34.33a102.91,102.91,0,0,1,9,24,7.59,7.59,0,0,1,4.22,1.27A317.56,317.56,0,0,1,364.73,152a6.77,6.77,0,1,1,1.67,2.72l0,0a314.68,314.68,0,0,0-54.84,42.38A7.74,7.74,0,0,1,301,207.94a249.18,249.18,0,0,0-29.75,39.49,13,13,0,0,1,1.39,1.2,11.28,11.28,0,0,1,1.12,1.28,244.69,244.69,0,0,0,30.37-21.76,276.93,276.93,0,0,0,32.31-32,6.67,6.67,0,1,1,2.4,2,278.78,278.78,0,0,1-32.69,32.42,247.34,247.34,0,0,1-30.83,22.09c.13.32.25.65.36,1a217.87,217.87,0,0,1,46.09-2.7q2.13.14,4.2.3a7.92,7.92,0,0,1,12.84-3.45,120.51,120.51,0,0,0,29.36-34A108,108,0,0,0,382.31,171a5.62,5.62,0,0,1-1.87-1.21,5.42,5.42,0,1,1,7.66,0,5.35,5.35,0,0,1-2.66,1.45,111.25,111.25,0,0,1-14.56,44,123.58,123.58,0,0,1-30.22,35,7.79,7.79,0,0,1,.73,3,120.17,120.17,0,0,1,22.19,6.49,2.74,2.74,0,0,1,.29-.31,5.38,5.38,0,1,1-1.55,3.21,115.62,115.62,0,0,0-21.44-6.28,7.91,7.91,0,0,1-1.8,2.79,7.75,7.75,0,0,1-2.48,1.67,74.45,74.45,0,0,1,.82,14.07,79.31,79.31,0,0,1-2.21,15.92,6.64,6.64,0,0,1,2.42,2.36,86.09,86.09,0,0,0,57.29-90.73A5.25,5.25,0,0,1,392,201a5.34,5.34,0,1,1,7.55,0A5,5,0,0,1,398,202.08Z"/><path class="cls-2" d="M164,197.93h19q22.57,0,22.58-22.1,0-8.61-5.38-14t-15.17-5.44A21.85,21.85,0,0,0,171.13,161a14.22,14.22,0,0,0-5.91,11.59H125a41.2,41.2,0,0,1,7.65-24.49q7.65-10.76,21.2-16.79a72.55,72.55,0,0,1,29.81-6q29,0,45.64,13.26T245.86,175A36.75,36.75,0,0,1,239,196.2q-6.87,10-20,16.18,13.88,5,21.75,15.23t7.88,25.28q0,23.28-17.92,37.27t-47.07,14a77.17,77.17,0,0,1-31.72-6.51q-14.64-6.51-22.16-18.05a46.84,46.84,0,0,1-7.52-26.22h40.5a18.09,18.09,0,0,0,6.45,13.86,22.74,22.74,0,0,0,15.89,5.85q10.62,0,17-5.91a19.76,19.76,0,0,0,6.33-15.11q0-13.14-6.57-18.64t-18.16-5.49H164Z"/></g></svg>