<svg xmlns="http://www.w3.org/2000/svg" xmlns:xlink="http://www.w3.org/1999/xlink" viewBox="0 0 987 557"><defs><style>.cls-1{fill:#2a3234;}.cls-2{fill-rule:evenodd;fill:url(#linear-gradient);}.cls-3{fill:#f2e6eb;}</style><linearGradient id="linear-gradient" x1="242.61" y1="276.7" x2="374.52" y2="144.79" gradientUnits="userSpaceOnUse"><stop offset="0" stop-color="#f2e6eb"/><stop offset="0.28" stop-color="#d6c8ce"/><stop offset="0.87" stop-color="#907d86"/><stop offset="1" stop-color="#806c76"/></linearGradient></defs><g id="Layer_1" data-name="Layer 1"><rect class="cls-1" x="-18.58" y="-12.37" width="1015.58" height="580.37"/><path class="cls-2" d="M285.58,291a5.67,5.67,0,0,1,1.95.33c11.61-15.72,24-25.05,37.69-34.56a7.78,7.78,0,0,1-.61-2.4c-1.33-.11-2.68-.21-4-.29a213.49,213.49,0,0,0-45.36,2.65,12.22,12.22,0,0,1-3.07,8.71A89.45,89.45,0,0,1,285.58,291m-4.72,2.62a6.73,6.73,0,0,1,.76-.95,5.76,5.76,0,0,1,.95-.76,86.39,86.39,0,0,0-12.79-24.39,12.27,12.27,0,0,1-8.21,2,27.65,27.65,0,0,0,.22,4,29.33,29.33,0,0,0,3.73,10.71,5.41,5.41,0,0,1,6.89,6.07A86.24,86.24,0,0,0,280.86,293.61Zm-39.54-30.55a6.22,6.22,0,0,1-1,1.85,85.63,85.63,0,0,0,21.93,19.84,31.71,31.71,0,0,1-3.55-10.85,29.64,29.64,0,0,1-.23-5.16,12.34,12.34,0,0,1-6.77-6.53c-.65.12-1.3.23-2,.32A53.4,53.4,0,0,1,241.32,263.06ZM229.48,238a6.84,6.84,0,0,1-1.12,1.46,7.37,7.37,0,0,1-1.38,1.08,86.59,86.59,0,0,0,6.82,14.77,6.06,6.06,0,0,1,6.06,1.52,6,6,0,0,1,1.66,3.09,48.65,48.65,0,0,0,7.76-.5c.51-.07,1-.14,1.53-.23a12.3,12.3,0,0,1,1.93-8.71,87.07,87.07,0,0,0-19-10.84C232.35,239,230.91,238.5,229.48,238Zm.43-51.25a6.2,6.2,0,0,1-4.58,1.63,86,86,0,0,0-1.78,39.37,6.88,6.88,0,0,1,6.81,7.22c1.54.55,3.09,1.14,4.62,1.77a90.34,90.34,0,0,1,10.54,5.2,91.33,91.33,0,0,1,9.3,6.16,12.36,12.36,0,0,1,6.65-3,82.59,82.59,0,0,0-4.54-23.86,9.21,9.21,0,0,1-8.66-15.46l.5-.47A74.61,74.61,0,0,0,229.91,186.74Zm67.78,19a7.74,7.74,0,0,1,.88-9.9,7.4,7.4,0,0,1,2.41-1.63,100.84,100.84,0,0,0-8.67-23.11,7.86,7.86,0,0,1-7.23-1.2c-.68.65-1.36,1.29-2,1.95a112.75,112.75,0,0,0-23.37,32.63,9.21,9.21,0,0,1,1.6,14.3,9.16,9.16,0,0,1-1.46,1.19,85.68,85.68,0,0,1,4.8,25.14,12.36,12.36,0,0,1,2.85.75A252.55,252.55,0,0,1,297.69,205.77Zm-30.13-65.13a5.73,5.73,0,0,1-7.12-.45,85.69,85.69,0,0,0-26.82,28.62,87.26,87.26,0,0,0-4.21,8.29,6.64,6.64,0,0,1,.7.61,6.24,6.24,0,0,1,1.52,6.4,77.1,77.1,0,0,1,19.84,19.6,9.27,9.27,0,0,1,5.31-.39,115.79,115.79,0,0,1,24.07-33.68c.71-.7,1.43-1.38,2.16-2.07a7.84,7.84,0,0,1,1.17-9.33A107,107,0,0,0,267.56,140.64Zm56.79,155.9a6.58,6.58,0,0,1,6.83-6.49,77.28,77.28,0,0,0,2.1-15.2,72.22,72.22,0,0,0-.76-13.31,7.82,7.82,0,0,1-5.51-2.21c-13.4,9.34-25.59,18.51-36.91,33.8a5.67,5.67,0,0,1,1.23,3.27A85.93,85.93,0,0,0,324.35,296.54Zm19.2-78.44a6.69,6.69,0,1,1-9.45,0A6.69,6.69,0,0,1,343.55,218.1Zm3.7-75.2a5.23,5.23,0,1,1-7.4,0A5.22,5.22,0,0,1,347.25,142.9ZM368.66,177a5.23,5.23,0,1,1-7.4,0A5.24,5.24,0,0,1,368.66,177ZM376,234.56a5.23,5.23,0,1,1-7.4,0A5.24,5.24,0,0,1,376,234.56ZM259.27,166a5.23,5.23,0,1,1-7.4,0A5.22,5.22,0,0,1,259.27,166Zm25.42,28.77a5.23,5.23,0,1,1-7.39,0A5.24,5.24,0,0,1,284.69,194.75Zm16.06-60.88a5.23,5.23,0,1,1-7.39,0A5.22,5.22,0,0,1,300.75,133.87Zm-5.69,129.46a5.23,5.23,0,1,1-7.39,0A5.22,5.22,0,0,1,295.06,263.33Zm21.74-29.77a5.23,5.23,0,1,1-7.39,0A5.22,5.22,0,0,1,316.8,233.56Zm-79.61-25.43a5.23,5.23,0,1,1-7.39,0A5.24,5.24,0,0,1,237.19,208.13Zm84,70.59a5.23,5.23,0,1,1-7.4,0A5.23,5.23,0,0,1,321.16,278.72ZM397,202.08a89.32,89.32,0,0,1-59.47,94.18,6.61,6.61,0,0,1-11.27,5.06,6.28,6.28,0,0,1-1.23-1.71,89.3,89.3,0,0,1-34.44-.13,5.61,5.61,0,0,1-.95,1.24,5.69,5.69,0,0,1-9.71-4.09,89.33,89.33,0,0,1-8.94-3.55l-.12.12a5.41,5.41,0,0,1-9.1-5,88.8,88.8,0,0,1-24.05-21.42,6.06,6.06,0,0,1-6.62-9.78A89.39,89.39,0,0,1,224,241.45a6.87,6.87,0,0,1-5.33-11.71,7.28,7.28,0,0,1,1.84-1.31,89,89,0,0,1,1.85-41,7.05,7.05,0,0,1-1.06-.85,6.26,6.26,0,0,1,5.22-10.63,94.45,94.45,0,0,1,4.4-8.69,89,89,0,0,1,27.89-29.73,5.72,5.72,0,0,1,9.55-5.61l.05.06c2.61-1.3,5.29-2.47,8-3.5a89.27,89.27,0,0,1,55.08-2.83,5.65,5.65,0,0,1,.62-.77,5.24,5.24,0,1,1-1.53,3.78,86.2,86.2,0,0,0-53,2.75c-2.59,1-5.15,2.1-7.64,3.34a5.74,5.74,0,0,1-.33,3.47,110,110,0,0,1,17.23,18.27,7.82,7.82,0,0,1,8.18,1.28,120.18,120.18,0,0,1,24.29-13.62,5.43,5.43,0,1,1,9.26,3.42,5.45,5.45,0,0,1-7.68,0,6.48,6.48,0,0,1-.44-.49,116.72,116.72,0,0,0-23.51,13.18,7.83,7.83,0,0,1-1.5,9l-.34.33a102.91,102.91,0,0,1,9,24,7.59,7.59,0,0,1,4.22,1.27A317.56,317.56,0,0,1,363.73,152a6.77,6.77,0,1,1,1.67,2.72l0,0a314.68,314.68,0,0,0-54.84,42.38A7.74,7.74,0,0,1,300,207.94a249.18,249.18,0,0,0-29.75,39.49,13,13,0,0,1,1.39,1.2,11.28,11.28,0,0,1,1.12,1.28,244.69,244.69,0,0,0,30.37-21.76,276.93,276.93,0,0,0,32.31-32,6.67,6.67,0,1,1,2.4,2,278.78,278.78,0,0,1-32.69,32.42,247.34,247.34,0,0,1-30.83,22.09c.13.32.25.65.36,1a217.87,217.87,0,0,1,46.09-2.7q2.13.14,4.2.3a7.92,7.92,0,0,1,12.84-3.45,120.51,120.51,0,0,0,29.36-34A108,108,0,0,0,381.31,171a5.62,5.62,0,0,1-1.87-1.21,5.42,5.42,0,1,1,7.66,0,5.35,5.35,0,0,1-2.66,1.45,111.25,111.25,0,0,1-14.56,44,123.58,123.58,0,0,1-30.22,35,7.79,7.79,0,0,1,.73,3,120.17,120.17,0,0,1,22.19,6.49,2.74,2.74,0,0,1,.29-.31,5.38,5.38,0,1,1-1.55,3.21,115.62,115.62,0,0,0-21.44-6.28,7.91,7.91,0,0,1-1.8,2.79,7.75,7.75,0,0,1-2.48,1.67,74.45,74.45,0,0,1,.82,14.07,79.31,79.31,0,0,1-2.21,15.92,6.64,6.64,0,0,1,2.42,2.36,86.09,86.09,0,0,0,57.29-90.73A5.25,5.25,0,0,1,391,201a5.34,5.34,0,1,1,7.55,0A5,5,0,0,1,397,202.08Z"/><path class="cls-3" d="M164,197.93h19q22.57,0,22.58-22.1,0-8.61-5.38-14t-15.17-5.44A21.85,21.85,0,0,0,171.13,161a14.22,14.22,0,0,0-5.91,11.59H125a41.2,41.2,0,0,1,7.65-24.49q7.65-10.76,21.2-16.79a72.55,72.55,0,0,1,29.81-6q29,0,45.64,13.26T245.86,175A36.75,36.75,0,0,1,239,196.2q-6.87,10-20,16.18,13.88,5,21.75,15.23t7.88,25.28q0,23.28-17.92,37.27t-47.07,14a77.17,77.17,0,0,1-31.72-6.51q-14.64-6.51-22.16-18.05a46.84,46.84,0,0,1-7.52-26.22h40.5a18.09,18.09,0,0,0,6.45,13.86,22.74,22.74,0,0,0,15.89,5.85q10.62,0,17-5.91a19.76,19.76,0,0,0,6.33-15.11q0-13.14-6.57-18.64t-18.16-5.49H164Z"/><path class="cls-3" d="M137.59,353.25,153.44,398l15.76-44.75h16.7V415H173.14V398.08L174.41,369l-16.65,46H149L132.42,369l1.27,29.07V415H121v-61.7Z"/><path class="cls-3" d="M235.87,415a13.31,13.31,0,0,1-1.23-4.11,14.84,14.84,0,0,1-11.57,5,16.3,16.3,0,0,1-11.17-3.9,12.54,12.54,0,0,1-4.42-9.83q0-7.29,5.4-11.19t15.61-3.94h5.64v-2.63a7.57,7.57,0,0,0-1.63-5.09c-1.09-1.27-2.8-1.9-5.15-1.9a7.28,7.28,0,0,0-4.85,1.48,5.06,5.06,0,0,0-1.76,4.07H208.49A12.28,12.28,0,0,1,211,375.5a16.25,16.25,0,0,1,7-5.32A25.25,25.25,0,0,1,228,368.25q8.47,0,13.45,4.26t5,12v19.87c0,4.35.64,7.65,1.82,9.88V415Zm-10.13-8.52a10.47,10.47,0,0,0,5-1.21,7.83,7.83,0,0,0,3.39-3.24V394.1h-4.58q-9.2,0-9.78,6.36l-.05.72a4.92,4.92,0,0,0,1.61,3.77A6.27,6.27,0,0,0,225.74,406.43Z"/><path class="cls-3" d="M310.21,392.45q0,10.59-4.81,17a15.44,15.44,0,0,1-13,6.38A14.28,14.28,0,0,1,281.18,411v21.62H268.93V369.1h11.36l.42,4.49a14.4,14.4,0,0,1,11.61-5.34q8.48,0,13.18,6.27t4.71,17.29ZM298,391.56q0-6.4-2.27-9.88a7.4,7.4,0,0,0-6.59-3.47q-5.76,0-7.92,4.41v18.77q2.25,4.53,8,4.53Q298,405.92,298,391.56Z"/><path class="cls-3" d="M414.85,394.4q-.72,9.94-7.35,15.68T390,415.8q-11.86,0-18.67-8t-6.8-21.93v-3.77a37,37,0,0,1,3.14-15.68,23.56,23.56,0,0,1,9-10.41,25.17,25.17,0,0,1,13.54-3.62q10.68,0,17.21,5.72t7.54,16.06H402.23c-.32-4-1.42-6.87-3.33-8.66s-4.81-2.69-8.71-2.69q-6.36,0-9.51,4.55t-3.24,14.13v4.66q0,10,3,14.62t9.55,4.62c3.93,0,6.86-.89,8.79-2.69s3.05-4.57,3.33-8.32Z"/><path class="cls-3" d="M447.45,374.1a15.28,15.28,0,0,1,12.25-5.85q14.91,0,15.13,17.33V415H462.58v-29q0-3.94-1.7-5.83c-1.13-1.25-3-1.88-5.63-1.88q-5.38,0-7.8,4.15V415H435.2V349.86h12.25Z"/><path class="cls-3" d="M523.74,415a13.31,13.31,0,0,1-1.23-4.11,14.84,14.84,0,0,1-11.57,5,16.26,16.26,0,0,1-11.16-3.9,12.52,12.52,0,0,1-4.43-9.83q0-7.29,5.4-11.19t15.62-3.94H522v-2.63a7.57,7.57,0,0,0-1.63-5.09c-1.09-1.27-2.8-1.9-5.15-1.9a7.28,7.28,0,0,0-4.85,1.48,5.06,5.06,0,0,0-1.76,4.07H496.36a12.28,12.28,0,0,1,2.46-7.37,16.25,16.25,0,0,1,6.95-5.32,25.29,25.29,0,0,1,10.09-1.93q8.48,0,13.45,4.26t5,12v19.87c0,4.35.64,7.65,1.82,9.88V415Zm-10.13-8.52a10.47,10.47,0,0,0,5-1.21A7.83,7.83,0,0,0,522,402V394.1h-4.58q-9.19,0-9.78,6.36l-.05.72A4.92,4.92,0,0,0,509.2,405,6.27,6.27,0,0,0,513.61,406.43Z"/><path class="cls-3" d="M569.73,415H557.44V349.86h12.29Z"/><path class="cls-3" d="M605.84,415H593.55V349.86h12.29Z"/><path class="cls-3" d="M650.14,415.8q-10.1,0-16.42-6.19t-6.34-16.49v-1.18a27.74,27.74,0,0,1,2.67-12.36,19.7,19.7,0,0,1,7.56-8.39,21.29,21.29,0,0,1,11.17-2.94q9.4,0,14.81,5.93T669,391v5H639.8a11.36,11.36,0,0,0,3.58,7.2,10.8,10.8,0,0,0,7.56,2.71A13.21,13.21,0,0,0,662,400.79l6,6.74a18.34,18.34,0,0,1-7.46,6.08A24.4,24.4,0,0,1,650.14,415.8Zm-1.4-37.68a7.67,7.67,0,0,0-5.91,2.47,12.78,12.78,0,0,0-2.91,7.07h17v-1a9.09,9.09,0,0,0-2.21-6.32A7.87,7.87,0,0,0,648.74,378.12Z"/><path class="cls-3" d="M700.32,369.1l.38,5.29a16,16,0,0,1,13.18-6.14q7.29,0,10.85,4.28t3.64,12.8V415H716.13V385.62c0-2.59-.57-4.48-1.7-5.65s-3-1.76-5.64-1.76a8.42,8.42,0,0,0-7.75,4.41V415H688.79V369.1Z"/><path class="cls-3" d="M749,391.68q0-10.55,5-17a16.28,16.28,0,0,1,13.54-6.44q7.55,0,11.74,5.17l.51-4.32h11.1v44.32a19.55,19.55,0,0,1-2.74,10.47,17.47,17.47,0,0,1-7.69,6.78A27.06,27.06,0,0,1,768.85,433a25.17,25.17,0,0,1-9.83-2,17.55,17.55,0,0,1-7.25-5.19l5.43-7.46a14.34,14.34,0,0,0,11.1,5.13q4.88,0,7.59-2.61c1.8-1.74,2.71-4.2,2.71-7.4V411a14.18,14.18,0,0,1-11.15,4.79,16.25,16.25,0,0,1-13.37-6.47q-5.1-6.45-5.1-17.14Zm12.24.92c0,4.15.84,7.42,2.51,9.78a7.94,7.94,0,0,0,6.86,3.54q5.6,0,8-4.2V382.41q-2.46-4.2-7.93-4.2a8,8,0,0,0-6.92,3.61Q761.23,385.42,761.22,392.6Z"/><path class="cls-3" d="M834.5,415.8q-10.08,0-16.42-6.19t-6.33-16.49v-1.18a27.74,27.74,0,0,1,2.67-12.36,19.7,19.7,0,0,1,7.56-8.39,21.27,21.27,0,0,1,11.17-2.94q9.4,0,14.81,5.93t5.4,16.83v5h-29.2a11.41,11.41,0,0,0,3.58,7.2,10.84,10.84,0,0,0,7.57,2.71,13.22,13.22,0,0,0,11.06-5.13l6,6.74a18.4,18.4,0,0,1-7.46,6.08A24.42,24.42,0,0,1,834.5,415.8Zm-1.39-37.68a7.69,7.69,0,0,0-5.92,2.47,12.78,12.78,0,0,0-2.9,7.07h17v-1a9.14,9.14,0,0,0-2.21-6.32A7.89,7.89,0,0,0,833.11,378.12Z"/><path class="cls-3" d="M442.09,298V130.14h51.65q22.14,0,39.6,10a69.62,69.62,0,0,1,27.27,28.36q9.79,18.39,9.8,41.79V218q0,23.4-9.63,41.62a68.94,68.94,0,0,1-27.15,28.24q-17.52,10-39.54,10.15Zm34.59-139.84v112h16.71q20.3,0,31-13.25t11-37.93v-8.88q0-25.59-10.61-38.79t-31-13.2Z"/><path class="cls-3" d="M687.88,263.41H627.24L615.71,298H578.94l62.48-167.86h32.05L736.3,298H699.53Zm-51.3-28h42l-21.1-62.83Z"/><path class="cls-3" d="M792.56,205.77l34.94-75.63h37.81l-55.11,107V298H775V237.13l-55.11-107h37.93Z"/></g></svg>