<?xml version="1.0" encoding="UTF-8" standalone="no"?>
<svg
   xmlns:dc="http://purl.org/dc/elements/1.1/"
   xmlns:cc="http://creativecommons.org/ns#"
   xmlns:rdf="http://www.w3.org/1999/02/22-rdf-syntax-ns#"
   xmlns:svg="http://www.w3.org/2000/svg"
   xmlns="http://www.w3.org/2000/svg"
   xmlns:xlink="http://www.w3.org/1999/xlink"
   xmlns:sodipodi="http://sodipodi.sourceforge.net/DTD/sodipodi-0.dtd"
   xmlns:inkscape="http://www.inkscape.org/namespaces/inkscape"
   viewBox="0 0 987 463"
   version="1.1"
   id="svg48"
   sodipodi:docname="30DMC_Tag_.svg"
   inkscape:version="0.92.5 (2060ec1f9f, 2020-04-08)">
  <metadata
     id="metadata52">
    <rdf:RDF>
      <cc:Work
         rdf:about="">
        <dc:format>image/svg+xml</dc:format>
        <dc:type
           rdf:resource="http://purl.org/dc/dcmitype/StillImage" />
      </cc:Work>
    </rdf:RDF>
  </metadata>
  <sodipodi:namedview
     pagecolor="#ffffff"
     bordercolor="#666666"
     borderopacity="1"
     objecttolerance="10"
     gridtolerance="10"
     guidetolerance="10"
     inkscape:pageopacity="0"
     inkscape:pageshadow="2"
     inkscape:window-width="1366"
     inkscape:window-height="713"
     id="namedview50"
     showgrid="false"
     inkscape:zoom="0.35866261"
     inkscape:cx="586.72454"
     inkscape:cy="231.5"
     inkscape:window-x="0"
     inkscape:window-y="27"
     inkscape:window-maximized="1"
     inkscape:current-layer="svg48" />
  <defs
     id="defs21">
    <style
       id="style2">.cls-1{fill:url(#linear-gradient);}.cls-2{fill:url(#linear-gradient-2);}.cls-3{fill:url(#linear-gradient-3);}.cls-4{fill:url(#linear-gradient-4);}.cls-5{fill:url(#linear-gradient-5);}.cls-6{fill:url(#linear-gradient-6);}.cls-7{fill:url(#linear-gradient-7);}.cls-8{fill:url(#linear-gradient-8);}.cls-9{fill:url(#linear-gradient-9);}.cls-10{fill:url(#linear-gradient-10);}.cls-11{fill:url(#linear-gradient-11);}.cls-12{font-size:596.56px;fill:#806c76;font-family:Roboto-Black, Roboto;font-weight:800;letter-spacing:0.15em;}</style>
    <linearGradient
       id="linear-gradient"
       x1="632.07"
       y1="131.3"
       x2="655.91"
       y2="131.3"
       gradientUnits="userSpaceOnUse">
      <stop
         offset="0"
         stop-color="#7c7474"
         id="stop4" />
      <stop
         offset="0.24"
         stop-color="#7d7175"
         id="stop6" />
      <stop
         offset="1"
         stop-color="#806c76"
         id="stop8" />
    </linearGradient>
    <linearGradient
       id="linear-gradient-2"
       x1="689.98"
       y1="196.82"
       x2="713.81"
       y2="196.82"
       xlink:href="#linear-gradient" />
    <linearGradient
       id="linear-gradient-3"
       x1="832.47"
       y1="78.73"
       x2="856.3"
       y2="78.73"
       xlink:href="#linear-gradient" />
    <linearGradient
       id="linear-gradient-4"
       x1="818.4"
       y1="252.36"
       x2="848.84"
       y2="252.36"
       xlink:href="#linear-gradient" />
    <linearGradient
       id="linear-gradient-5"
       x1="881.23"
       y1="156.44"
       x2="905.06"
       y2="156.44"
       xlink:href="#linear-gradient" />
    <linearGradient
       id="linear-gradient-6"
       x1="763.13"
       y1="285.22"
       x2="786.96"
       y2="285.22"
       xlink:href="#linear-gradient" />
    <linearGradient
       id="linear-gradient-7"
       x1="898"
       y1="287.5"
       x2="921.83"
       y2="287.5"
       xlink:href="#linear-gradient" />
    <linearGradient
       id="linear-gradient-8"
       x1="726.56"
       y1="58.15"
       x2="750.39"
       y2="58.15"
       xlink:href="#linear-gradient" />
    <linearGradient
       id="linear-gradient-9"
       x1="773.04"
       y1="388.08"
       x2="796.86"
       y2="388.08"
       xlink:href="#linear-gradient" />
    <linearGradient
       id="linear-gradient-10"
       x1="344.77"
       y1="229.76"
       x2="973.2"
       y2="229.76"
       xlink:href="#linear-gradient" />
    <linearGradient
       id="linear-gradient-11"
       x1="713.6"
       y1="353.03"
       x2="737.43"
       y2="353.03"
       xlink:href="#linear-gradient" />
  </defs>
  <g
     id="Layer_1"
     data-name="Layer 1"
     style="fill:#ffffff">
    <path
       class="cls-1"
       d="M652.41,139.72a11.91,11.91,0,1,0-16.85,0A11.9,11.9,0,0,0,652.41,139.72Z"
       id="path23"
       style="fill:#ffffff" />
    <path
       class="cls-2"
       d="M693.47,188.41a11.91,11.91,0,1,0,16.85,0A11.92,11.92,0,0,0,693.47,188.41Z"
       id="path25"
       style="fill:#ffffff" />
    <path
       class="cls-3"
       d="M836,87.15a11.91,11.91,0,1,0,0-16.85A11.91,11.91,0,0,0,836,87.15Z"
       id="path27"
       style="fill:#ffffff" />
    <path
       class="cls-4"
       d="M822.85,241.61a15.21,15.21,0,1,0,21.52,0A15.23,15.23,0,0,0,822.85,241.61Z"
       id="path29"
       style="fill:#ffffff" />
    <path
       class="cls-5"
       d="M884.72,148a11.91,11.91,0,1,0,16.85,0A11.93,11.93,0,0,0,884.72,148Z"
       id="path31"
       style="fill:#ffffff" />
    <path
       class="cls-6"
       d="M766.62,276.8a11.91,11.91,0,1,0,16.84,0A11.91,11.91,0,0,0,766.62,276.8Z"
       id="path33"
       style="fill:#ffffff" />
    <path
       class="cls-7"
       d="M901.48,279.09a11.92,11.92,0,1,0,16.86,0A11.94,11.94,0,0,0,901.48,279.09Z"
       id="path35"
       style="fill:#ffffff" />
    <path
       class="cls-8"
       d="M730.05,49.74a11.91,11.91,0,1,0,16.84,0A11.92,11.92,0,0,0,730.05,49.74Z"
       id="path37"
       style="fill:#ffffff" />
    <path
       class="cls-9"
       d="M776.53,379.65a11.92,11.92,0,1,0,16.85,0A11.91,11.91,0,0,0,776.53,379.65Z"
       id="path39"
       style="fill:#ffffff" />
    <path
       class="cls-10"
       d="M969.64,185.5a12.16,12.16,0,1,0-10.54,20.6A196.32,196.32,0,0,1,828.62,412.76a15.49,15.49,0,0,0-2.28-2.92,15.07,15.07,0,0,0-3.24-2.46,181.24,181.24,0,0,0,5-36.26,170,170,0,0,0-1.87-32,17.77,17.77,0,0,0,5.64-3.82,18.17,18.17,0,0,0,4.11-6.34,261.86,261.86,0,0,1,48.83,14.3,12.28,12.28,0,1,0,3.52-7.32,7.4,7.4,0,0,0-.66.72,271.46,271.46,0,0,0-50.54-14.78,17.75,17.75,0,0,0-1.66-6.92,281.38,281.38,0,0,0,68.83-79.67c17.72-30.71,29.52-64.89,33.17-100.33a12.34,12.34,0,1,0-11.38-3.31,12.22,12.22,0,0,0,4.24,2.76c-3.55,34.32-15,67.47-32.24,97.27a274,274,0,0,1-66.88,77.52,18,18,0,0,0-24.81.62A18.23,18.23,0,0,0,802,317c-3.15-.27-6.35-.49-9.57-.69q-48.11-2.76-105,6.16c-.25-.76-.51-1.51-.81-2.25A561.7,561.7,0,0,0,756.88,270a637.06,637.06,0,0,0,74.45-73.85,15.23,15.23,0,1,0-5.47-4.6,631.57,631.57,0,0,1-73.59,73A557.43,557.43,0,0,1,683.09,314a24.94,24.94,0,0,0-2.55-2.91,28.06,28.06,0,0,0-3.16-2.74,566.91,566.91,0,0,1,67.76-89.94,17.65,17.65,0,0,0,24-24.72C806.7,157.11,848.94,124.94,894,97.2l.1.08a15.35,15.35,0,1,0-3.78-6.2c-45.6,28-88.31,60.56-126.31,97.59a17.39,17.39,0,0,0-9.62-2.88A234.62,234.62,0,0,0,733.86,131l.77-.73a17.84,17.84,0,0,0,3.43-20.48,266.06,266.06,0,0,1,53.54-30c.31.37.64.75,1,1.11A12.35,12.35,0,1,0,789,73.1a273.46,273.46,0,0,0-55.32,31,17.82,17.82,0,0,0-18.62-2.93,250.47,250.47,0,0,0-39.25-41.62,13,13,0,0,0,.75-7.89q8.52-4.23,17.4-7.6a196.22,196.22,0,0,1,120.81-6.27,11.92,11.92,0,1,0,3.49-8.61A12.87,12.87,0,0,0,816.84,31a203.41,203.41,0,0,0-125.45,6.44c-6.18,2.36-12.28,5-18.23,8l-.12-.14A13,13,0,0,0,651.29,58a202,202,0,0,0-36.65,31.24,98,98,0,0,0-26-31.15q-37.83-30.21-104-30.2-37,0-67.9,13.74T368.45,79.88Q351,104.38,351,135.67h91.71q0-15.78,13.46-26.4t31.71-10.61q22.3,0,34.55,12.38t12.25,32q0,50.34-51.43,50.34H440v68.3h44.63q26.4,0,41.36,12.52t15,42.45q0,21-14.42,34.43t-38.64,13.46q-21.51,0-36.2-13.33T437,319.63H344.77q0,33.47,17.14,59.72t50.48,41.1q33.33,14.82,72.25,14.82,66.4,0,107.21-31.83a105.8,105.8,0,0,0,28.1-32.3,204,204,0,0,0,38.22,30.08,12.33,12.33,0,0,0,20.74,11.42l.27-.26a202,202,0,0,0,20.35,8.07,13,13,0,0,0,22.13,9.33,12.37,12.37,0,0,0,2.15-2.84,203.47,203.47,0,0,0,78.45.31,15.06,15.06,0,0,0,28.48-7.63A203.22,203.22,0,0,0,966.21,205.1a12.18,12.18,0,0,0,3.43-19.6Zm-242-50.91a228.5,228.5,0,0,1,19.74,52.64,17.3,17.3,0,0,0-5.49,3.71,17.63,17.63,0,0,0-2,22.56,574.3,574.3,0,0,0-68.83,91.39,28.22,28.22,0,0,0-6.5-1.71,194.73,194.73,0,0,0-10.93-57.26A21.41,21.41,0,0,0,657,243.2a21,21,0,0,0,0-29.65,22.24,22.24,0,0,0-3.64-2.91c12.69-27.21,31-52.56,53.23-74.34,1.53-1.49,3.07-3,4.63-4.43A17.92,17.92,0,0,0,727.67,134.59ZM633.13,335.15l-1.6.25a124.71,124.71,0,0,0,1.14-16.86c0-2.34-.08-4.64-.2-6.9q2.56,1.8,5.07,3.68A28,28,0,0,0,633.13,335.15Zm-1.55-32.8q-3.33-23.82-16.86-41.37a98.49,98.49,0,0,0-24.47-22.32,11.87,11.87,0,1,0-5.17-3.17,124.27,124.27,0,0,0-17.38-8.21c0-.76,0-1.51,0-2.27Q595,211.48,610,190.47a158.45,158.45,0,0,1,18.5,22c-.38.36-.76.69-1.13,1.07a21,21,0,0,0,19.74,35.21,187.93,187.93,0,0,1,10.33,54.35,28.07,28.07,0,0,0-15.14,6.79Q637.09,306,631.58,302.35Zm23.5-238.23a13,13,0,0,0,16.22,1,244.2,244.2,0,0,1,37.85,40.1,17.87,17.87,0,0,0-2.66,21.26c-1.67,1.55-3.31,3.11-4.93,4.71-22.93,22.45-41.77,48.59-54.83,76.72a21,21,0,0,0-12.08.89A165.34,165.34,0,0,0,614,184.37a82.39,82.39,0,0,0,12.42-43.26c0-16.63-2.86-31.56-8.49-44.83A195,195,0,0,1,655.08,64.12ZM623.33,364.35a100.59,100.59,0,0,0,7-21.53l.38,0c1.49-.21,3-.45,4.45-.72a28.09,28.09,0,0,0,15.43,14.87,67.67,67.67,0,0,0,.51,11.74,72.5,72.5,0,0,0,8.1,24.73A195.85,195.85,0,0,1,623.33,364.35Zm80,47.07a13.48,13.48,0,0,0-1.72,2.16A192.45,192.45,0,0,1,682.35,406a12.33,12.33,0,0,0-15.7-13.82,66.61,66.61,0,0,1-8.49-24.41,60.39,60.39,0,0,1-.5-9,28,28,0,0,0,18.68-4.55,195.59,195.59,0,0,1,29.13,55.55A13.47,13.47,0,0,0,703.32,411.42Zm13.46-3.07a13.27,13.27,0,0,0-4.45-.73,203.51,203.51,0,0,0-30.6-58.22,27.83,27.83,0,0,0,7-19.85q56-8.78,103.33-6c3.11.18,6.17.4,9.21.65a17.63,17.63,0,0,0,1.39,5.47C771.53,351.31,743.24,372.56,716.78,408.35ZM821,370.85a175,175,0,0,1-4.79,34.61,15,15,0,0,0-15.54,14.79,196.1,196.1,0,0,1-75.22-.31,12.87,12.87,0,0,0-2.8-7.45c25.79-34.83,53.54-55.71,84.07-77a17.9,17.9,0,0,0,12.54,5A163.51,163.51,0,0,1,821,370.85Z"
       id="path41"
       style="fill:#ffffff" />
    <path
       class="cls-11"
       d="M717.09,344.6a11.91,11.91,0,1,0,16.85,0A11.93,11.93,0,0,0,717.09,344.6Z"
       id="path43"
       style="fill:#ffffff" />
    <text
       class="cls-12"
       transform="translate(24.68 439.33)"
       id="text45"
       style="fill:#ffffff">#</text>
  </g>
</svg>
