<?xml version="1.0" encoding="UTF-8" standalone="no"?>
<svg
   xmlns:dc="http://purl.org/dc/elements/1.1/"
   xmlns:cc="http://creativecommons.org/ns#"
   xmlns:rdf="http://www.w3.org/1999/02/22-rdf-syntax-ns#"
   xmlns:svg="http://www.w3.org/2000/svg"
   xmlns="http://www.w3.org/2000/svg"
   xmlns:sodipodi="http://sodipodi.sourceforge.net/DTD/sodipodi-0.dtd"
   xmlns:inkscape="http://www.inkscape.org/namespaces/inkscape"
   width="1047.7008"
   height="237.06691"
   viewBox="0 0 277.20404 62.723951"
   version="1.1"
   id="svg8"
   sodipodi:docname="logo_white.svg"
   inkscape:version="1.0.2 (e86c870879, 2021-01-15)">
  <defs
     id="defs2">
    <inkscape:path-effect
       effect="bspline"
       id="path-effect1064"
       is_visible="true"
       lpeversion="1"
       weight="33.333333"
       steps="2"
       helper_size="0"
       apply_no_weight="true"
       apply_with_weight="true"
       only_selected="false" />
    <inkscape:path-effect
       effect="bspline"
       id="path-effect1060"
       is_visible="true"
       lpeversion="1"
       weight="33.333333"
       steps="2"
       helper_size="0"
       apply_no_weight="true"
       apply_with_weight="true"
       only_selected="false" />
    <inkscape:path-effect
       effect="bspline"
       id="path-effect1056"
       is_visible="true"
       lpeversion="1"
       weight="33.333333"
       steps="2"
       helper_size="0"
       apply_no_weight="true"
       apply_with_weight="true"
       only_selected="false" />
    <inkscape:path-effect
       effect="bspline"
       id="path-effect1052"
       is_visible="true"
       lpeversion="1"
       weight="33.333333"
       steps="2"
       helper_size="0"
       apply_no_weight="true"
       apply_with_weight="true"
       only_selected="false" />
    <inkscape:path-effect
       effect="bspline"
       id="path-effect1048"
       is_visible="true"
       lpeversion="1"
       weight="33.333333"
       steps="2"
       helper_size="0"
       apply_no_weight="true"
       apply_with_weight="true"
       only_selected="false" />
    <inkscape:path-effect
       effect="bspline"
       id="path-effect1044"
       is_visible="true"
       lpeversion="1"
       weight="33.333333"
       steps="2"
       helper_size="0"
       apply_no_weight="true"
       apply_with_weight="true"
       only_selected="false" />
    <inkscape:path-effect
       effect="bspline"
       id="path-effect1040"
       is_visible="true"
       lpeversion="1"
       weight="33.333333"
       steps="2"
       helper_size="0"
       apply_no_weight="true"
       apply_with_weight="true"
       only_selected="false" />
    <inkscape:path-effect
       effect="bspline"
       id="path-effect984"
       is_visible="true"
       lpeversion="1"
       weight="33.333333"
       steps="2"
       helper_size="0"
       apply_no_weight="true"
       apply_with_weight="true"
       only_selected="false" />
    <inkscape:path-effect
       effect="bspline"
       id="path-effect980"
       is_visible="true"
       lpeversion="1"
       weight="33.333333"
       steps="2"
       helper_size="0"
       apply_no_weight="true"
       apply_with_weight="true"
       only_selected="false" />
    <inkscape:path-effect
       effect="bspline"
       id="path-effect976"
       is_visible="true"
       lpeversion="1"
       weight="33.333333"
       steps="2"
       helper_size="0"
       apply_no_weight="true"
       apply_with_weight="true"
       only_selected="false" />
    <clipPath
       clipPathUnits="userSpaceOnUse"
       id="clipPath1034">
      <path
         style="fill:#0000ff;stroke-width:0.850929"
         d="m 446.17815,150.69671 -23.62907,-23.02131 -0.0214,-13.48094 -0.0214,-13.48093 h 13.75264 13.75265 l 24.21469,23.02675 24.2147,23.02677 v 13.47548 13.47548 h -14.31685 -14.31684 z m -55.96597,16.3384 c -19.74702,-2.33809 -38.5133,-9.97525 -52.80517,-21.48965 -35.64599,-28.71868 -42.80556,-82.147841 -16.0333,-119.65085 13.43684,-18.8225301 36.4699,-32.4928 62.06133,-36.83378 10.46866,-1.77575 28.26165,-1.77008 38.86584,0.0124 39.93626,6.7129802 69.29884,33.87169 76.68701,70.931118 2.85245,14.307936 1.44135,33.310279 -3.48945,46.990102 -2.40123,6.66186 -5.85513,13.62938 -6.75632,13.62938 -0.34256,0 -6.84311,-6.20285 -14.4457,-13.78412 -11.27971,-11.248084 -13.79151,-14.186223 -13.65255,-15.969724 0.0937,-1.202079 0.44513,-5.434274 0.7811,-9.404871 2.89465,-34.212792 -23.60356,-62.881626 -58.1206,-62.881626 -48.65684,0 -76.45331,53.926149 -48.18843,93.487211 10.67502,14.94132 29.04255,24.31547 47.64326,24.31547 h 7.98518 l 13.46597,12.81924 13.46599,12.81924 -2.5664,0.92907 c -9.67526,3.50259 -32.36553,5.56523 -44.89776,4.08139 z m 7.20069,-63.20749 -11.56475,-11.017502 V 79.340297 65.870481 h 14.19532 14.19534 l 11.54232,10.992152 11.54232,10.992152 h -13.73648 -13.73648 l -0.43641,13.495175 -0.4364,13.49517 z"
         id="path1036" />
    </clipPath>
  </defs>
  <sodipodi:namedview
     id="base"
     pagecolor="#000000"
     bordercolor="#666666"
     borderopacity="1.0"
     inkscape:pageopacity="0"
     inkscape:pageshadow="2"
     inkscape:zoom="0.30184798"
     inkscape:cx="528.86559"
     inkscape:cy="104.69381"
     inkscape:document-units="mm"
     inkscape:current-layer="layer1"
     showgrid="false"
     fit-margin-top="0"
     fit-margin-left="0"
     fit-margin-right="0"
     fit-margin-bottom="0"
     showguides="true"
     inkscape:guide-bbox="true"
     units="px"
     inkscape:window-width="1366"
     inkscape:window-height="711"
     inkscape:window-x="0"
     inkscape:window-y="27"
     inkscape:window-maximized="1"
     inkscape:pagecheckerboard="false"
     inkscape:document-rotation="0" />
  <metadata
     id="metadata5">
    <rdf:RDF>
      <cc:Work
         rdf:about="">
        <dc:format>image/svg+xml</dc:format>
        <dc:type
           rdf:resource="http://purl.org/dc/dcmitype/StillImage" />
        <dc:title />
      </cc:Work>
    </rdf:RDF>
  </metadata>
  <g
     inkscape:label="Livello 1"
     inkscape:groupmode="layer"
     id="layer1"
     transform="translate(-17.62663,-157.89244)"
     style="opacity:0.99">
    <text
       xml:space="preserve"
       style="font-style:normal;font-variant:normal;font-weight:900;font-stretch:normal;font-size:54.111px;line-height:125%;font-family:Trueno;-inkscape-font-specification:'Trueno, Heavy';font-variant-ligatures:normal;font-variant-caps:normal;font-variant-numeric:normal;font-variant-east-asian:normal;letter-spacing:0px;word-spacing:0px;fill:#ffffff;fill-opacity:1;stroke:none;stroke-width:3.58298;stroke-linecap:butt;stroke-linejoin:miter;stroke-miterlimit:4;stroke-dasharray:none;stroke-opacity:1"
       x="14.305437"
       y="208.24738"
       id="text50"
       inkscape:export-filename="H:\Archivio Lavori\Web\HfcQGIS\In Progess\in_progress\hfc_white.png"
       inkscape:export-xdpi="96"
       inkscape:export-ydpi="96"
       transform="scale(0.98334537,1.0169367)"><tspan
         sodipodi:role="line"
         id="tspan48"
         x="14.305437"
         y="208.24738"
         style="font-style:normal;font-variant:normal;font-weight:900;font-stretch:normal;font-size:54.111px;font-family:Trueno;-inkscape-font-specification:'Trueno, Heavy';font-variant-ligatures:normal;font-variant-caps:normal;font-variant-numeric:normal;font-variant-east-asian:normal;fill:#ffffff;fill-opacity:1;stroke:#ffffff;stroke-width:3.58298;stroke-miterlimit:4;stroke-dasharray:none;stroke-opacity:1">30DCM</tspan><tspan
         sodipodi:role="line"
         x="14.305437"
         y="275.88614"
         style="font-style:normal;font-variant:normal;font-weight:900;font-stretch:normal;font-size:54.111px;font-family:Trueno;-inkscape-font-specification:'Trueno, Heavy';font-variant-ligatures:normal;font-variant-caps:normal;font-variant-numeric:normal;font-variant-east-asian:normal;fill:#ffffff;fill-opacity:1;stroke:#ffffff;stroke-width:3.58298;stroke-miterlimit:4;stroke-dasharray:none;stroke-opacity:1"
         id="tspan861" /></text>
    <path
       style="fill:#ffffff;stroke-width:0.0375554"
       d="m 260.15514,220.59824 c -1.18941,-0.0524 -3.50684,-0.37706 -5.06139,-0.70895 -5.27328,-1.12585 -10.1493,-3.5121 -14.32142,-7.00871 -0.71969,-0.60318 -2.49228,-2.31539 -3.08341,-2.97837 -2.80553,-3.14667 -4.79046,-6.43079 -6.20266,-10.26251 -0.92227,-2.50237 -1.6037,-5.73482 -1.75635,-8.33138 -0.0498,-0.84685 -0.0491,-3.21921 0.001,-4.10131 0.1435,-2.52165 0.71342,-5.32133 1.60611,-7.88999 1.39648,-4.01826 3.52833,-7.57537 6.50326,-10.85103 1.06948,-1.17758 2.97859,-2.9067 4.35079,-3.9406 3.62943,-2.73461 7.96405,-4.75763 12.36327,-5.77011 1.68354,-0.38747 3.3114,-0.62635 5.42827,-0.79662 1.99622,-0.16056 5.60036,-0.0175 7.64721,0.30351 1.79836,0.28205 4.48976,1.02124 6.52633,1.79247 4.18461,1.58465 7.83743,3.89239 11.07436,6.99642 5.29764,5.08014 8.52534,11.56299 9.41263,18.90531 0.13241,1.09566 0.15937,1.54841 0.18182,3.05301 0.0517,3.46413 -0.22871,5.42101 -1.27542,8.90152 -0.82702,2.74997 -1.86796,5.04967 -3.42154,7.55893 -1.55859,2.51735 -3.77673,5.11349 -6.06968,7.10401 -3.13107,2.71811 -6.81416,4.8457 -10.78959,6.23273 -2.79197,0.97412 -6.17707,1.64433 -8.99483,1.78085 -0.67388,0.0326 -3.45798,0.0399 -4.11875,0.0105 z m 4.37119,-0.23317 c 7.6167,-0.48739 14.96881,-3.69518 20.4396,-8.91798 4.00376,-3.82226 6.8092,-8.38557 8.38998,-13.64711 0.2799,-0.93161 0.27798,-0.89423 0.0519,-1.01257 -0.1007,-0.0527 -0.20188,-0.11388 -0.22485,-0.13593 -0.0301,-0.0289 -0.0242,-0.30999 0.0212,-1.00879 0.12361,-1.90519 0.17571,-2.8954 0.20079,-3.82159 l 0.0254,-0.94016 -0.35862,-0.12964 -0.35863,-0.12977 -0.14244,-0.64609 c -0.15772,-0.71541 -0.23109,-0.9885 -0.46221,-1.72012 l -0.15685,-0.49658 -0.27312,-0.27029 c -0.43662,-0.43208 -1.38305,-1.27882 -2.08161,-1.86233 -0.50034,-0.41792 -0.65638,-0.56964 -0.69381,-0.67462 -0.0265,-0.0745 -0.14536,-0.42508 -0.264,-0.77912 -0.19462,-0.58085 -0.45661,-1.28323 -0.4909,-1.31613 -0.0252,-0.0242 -0.53882,0.24129 -0.60678,0.31353 -0.0915,0.0973 -0.17597,0.52533 -0.20503,1.03939 -0.0222,0.39281 -0.0181,0.42988 0.0563,0.51933 0.044,0.0529 0.13079,0.106 0.19255,0.11795 0.0859,0.0164 0.14506,0.0732 0.25089,0.24031 0.2113,0.3337 0.28254,0.51271 0.34687,0.87173 0.0877,0.48928 0.0994,0.53136 0.1484,0.5305 0.0246,-4.2e-4 0.16417,-0.0749 0.30997,-0.16552 0.1458,-0.0906 0.30542,-0.16474 0.35468,-0.16474 0.0528,0 0.15024,0.0582 0.23747,0.14185 0.19126,0.1835 1.19716,1.46879 1.31197,1.67638 l 0.088,0.15933 -0.0934,0.44493 -0.0934,0.44492 -1.45706,1.5453 -1.45707,1.5453 -0.4097,4.2e-4 c -0.47023,5.5e-4 -0.53146,0.0173 -0.81813,0.22496 -0.16314,0.11808 -0.22182,0.14294 -0.26219,0.11086 -0.0286,-0.0227 -0.31761,-0.36505 -0.6422,-0.76059 l -0.59019,-0.71916 -0.18313,-0.5221 c -0.38227,-1.0898 -0.44478,-1.46999 -0.47588,-2.8946 l -0.023,-1.04832 -0.23715,-0.49657 -0.23715,-0.49657 0.0898,-0.77245 c 0.0494,-0.42484 0.0938,-0.93796 0.0988,-1.14028 l 0.009,-0.36783 -0.37205,-0.0906 c -0.20462,-0.0498 -0.38288,-0.0803 -0.39611,-0.0675 -0.0549,0.0527 -0.0989,1.11458 -0.0906,2.18124 0.005,0.62715 -0.005,1.33931 -0.0221,1.58258 -0.0342,0.48725 0.0209,1.25438 0.12161,1.69112 0.0705,0.30558 0.34174,1.01993 0.54721,1.44091 0.17823,0.36519 0.33179,0.5863 0.60745,0.87474 0.27443,0.28716 0.33738,0.42888 0.27324,0.61527 -0.0476,0.13811 -0.0317,0.85242 0.0263,1.1791 0.0208,0.11703 0.0364,0.13459 0.10562,0.11808 0.0617,-0.0146 0.1968,0.0705 0.5577,0.35158 l 0.47635,0.37088 0.20179,-0.19116 0.20179,-0.19118 0.29963,0.10087 c 0.16479,0.0554 0.33838,0.12452 0.38577,0.15351 l 0.0861,0.0527 -0.12293,0.21074 c -0.38596,0.66142 -1.1573,1.91181 -1.21215,1.96499 -0.12694,0.12307 -2.01218,1.42009 -2.31692,1.59398 -0.1714,0.0979 -0.50065,0.2515 -0.73168,0.34152 -0.36356,0.14168 -0.47477,0.16774 -0.82674,0.19379 -0.22367,0.0165 -0.46292,0.031 -0.53167,0.0319 -0.11961,0.001 -0.1481,0.0352 -0.65655,0.76913 -0.29234,0.422 -0.5591,0.84821 -0.59278,0.94717 -0.0787,0.2315 -0.23071,0.96376 -0.33078,1.5943 -0.0471,0.29643 -0.11215,0.56139 -0.16235,0.6609 -0.11122,0.22045 -0.40994,0.50268 -1.74718,1.6509 l -1.12232,0.96366 h -0.40392 -0.40392 l -0.36451,0.29401 c -0.20047,0.1617 -0.43692,0.33471 -0.52544,0.38447 -0.16387,0.0921 -0.57256,0.17637 -1.08961,0.2246 -0.15254,0.0142 -0.30192,0.0445 -0.33195,0.0671 -0.03,0.0227 -0.17428,0.17589 -0.32057,0.34043 l -0.26601,0.29914 -0.026,0.36295 c -0.0486,0.67842 -0.11215,1.19121 -0.15459,1.24602 -0.029,0.0376 -0.20956,0.0743 -0.57908,0.11755 l -0.53681,0.0629 -0.57515,0.32741 c -1.4086,0.80185 -2.87169,1.57002 -2.99031,1.57002 -0.0276,0 -0.53304,-0.14897 -1.12326,-0.33104 l -1.07312,-0.33105 h -0.57424 -0.57425 l -0.50605,0.22069 c -0.27834,0.12137 -0.53516,0.2207 -0.57072,0.2207 -0.0356,0 -0.24854,-0.0519 -0.47328,-0.11519 l -0.40861,-0.11519 0.0721,-0.20111 c 0.10468,-0.29174 0.17832,-0.7057 0.20944,-1.17649 l 0.0273,-0.41255 0.45528,-0.57575 c 0.2504,-0.31666 0.45528,-0.5903 0.45528,-0.6081 0,-0.0177 0.0606,-0.42551 0.13475,-0.90603 l 0.13474,-0.87368 -0.22356,-1.06673 -0.22356,-1.06669 0.72243,-2.08088 0.72245,-2.08088 0.55763,-0.36174 c 0.30672,-0.19895 0.60157,-0.41696 0.65524,-0.48448 0.0537,-0.0675 0.15006,-0.27597 0.2142,-0.46325 0.10225,-0.29865 0.11641,-0.39025 0.11455,-0.74513 -0.004,-0.71714 -0.21159,-2.74182 -0.38703,-3.77028 l -0.1035,-0.60691 0.46319,-0.44139 c 0.25476,-0.24278 0.56858,-0.58476 0.69743,-0.75998 l 0.23426,-0.31856 -0.128,-0.85241 c -0.0703,-0.46884 -0.13703,-0.86114 -0.14812,-0.87179 -0.019,-0.0183 -0.62398,0.0491 -0.75642,0.0842 -0.041,0.0105 -0.20932,-0.14887 -0.51626,-0.49024 -0.2504,-0.27851 -0.46933,-0.51591 -0.48647,-0.52755 -0.0172,-0.0118 -0.14477,-0.007 -0.28359,0.0118 -0.13885,0.0179 -0.25543,0.0273 -0.25908,0.0212 -0.11761,-0.19987 -0.38139,-0.54461 -0.41658,-0.54456 -0.0263,4e-5 -0.54802,-0.0344 -1.15961,-0.0767 -1.30196,-0.0898 -1.13127,-0.0315 -2.02338,-0.69165 l -0.59023,-0.43675 -0.53101,-0.0391 c -0.47407,-0.0349 -0.55598,-0.0514 -0.76377,-0.15295 -0.128,-0.0627 -0.27067,-0.14223 -0.31705,-0.17686 -0.0998,-0.0746 -1.39287,-2.33759 -1.90655,-3.33667 -0.19763,-0.38439 -0.46033,-0.9389 -0.58378,-1.23224 l -0.22446,-0.53335 -0.0133,-0.47338 c -0.0135,-0.50557 0.0336,-0.86995 0.14348,-1.10898 0.0374,-0.0813 0.2562,-0.34282 0.48626,-0.58117 0.23004,-0.23833 0.51936,-0.53932 0.64294,-0.66885 l 0.22467,-0.23552 0.20717,-0.85192 c 0.124,-0.50988 0.23661,-0.89085 0.2805,-0.94892 0.0859,-0.11374 0.40676,-0.41164 0.94183,-0.87471 l 0.38345,-0.33184 0.63268,0.0318 0.63267,0.0317 0.0888,-0.10232 c 0.40138,-0.46223 0.38041,-0.44569 0.66936,-0.52825 0.15229,-0.0435 0.4851,-0.18305 0.73959,-0.31011 0.47602,-0.23766 0.58135,-0.26744 1.43504,-0.40571 l 0.36373,-0.0588 0.74222,-0.49932 0.74222,-0.49932 0.69621,-0.0552 0.6962,-0.0552 0.4829,0.16899 c 0.77585,0.27151 1.14993,0.33398 2.01357,0.33629 l 0.73267,0.001 0.73864,0.58501 0.73861,0.58501 0.59079,-0.13497 0.59077,-0.13498 0.56448,0.36344 c 0.61247,0.39434 0.73099,0.44691 1.00755,0.44691 h 0.18238 l 0.25157,0.35493 c 0.13837,0.19521 0.24419,0.36641 0.23515,0.38045 -0.009,0.014 -0.15083,0.0634 -0.31507,0.10981 -0.16424,0.0464 -0.36153,0.11453 -0.43843,0.1517 -0.12267,0.0592 -0.72293,0.66534 -0.72293,0.72996 0,0.0134 0.60823,0.46508 1.35162,1.0037 0.7434,0.53863 1.4077,1.02924 1.47624,1.09024 0.10895,0.0969 0.12467,0.13434 0.12467,0.2969 0,0.23257 0.0753,0.31286 0.32386,0.34554 0.10039,0.0133 0.19466,0.0168 0.20946,0.008 0.0148,-0.009 0.0678,-0.18202 0.11774,-0.38501 0.0499,-0.20299 0.10091,-0.38485 0.11348,-0.40416 0.012,-0.0193 0.18661,-0.0393 0.38705,-0.0444 l 0.36446,-0.009 0.70681,0.52932 c 0.38874,0.29112 0.76738,0.55893 0.8414,0.59513 0.0798,0.039 0.21836,0.0658 0.34041,0.0658 h 0.20584 l 0.8861,0.86738 c 0.88948,0.87068 1.31593,1.23363 1.67215,1.42321 l 0.19166,0.10206 0.13419,-0.23074 c 0.36754,-0.63194 0.43804,-0.84526 0.50408,-1.52553 l 0.0258,-0.26486 -0.21146,-0.12978 c -0.42484,-0.2607 -1.43421,-0.7596 -2.16835,-1.07176 -0.87241,-0.37093 -1.16697,-0.52435 -1.90293,-0.99108 -0.74944,-0.47528 -0.71093,-0.42191 -0.73714,-1.02174 l -0.0217,-0.49618 0.11095,-0.0209 c 0.15417,-0.029 0.53455,-0.0561 1.62558,-0.11585 l 0.93943,-0.0515 0.47931,0.25171 c 0.84202,0.4422 2.51765,1.21107 2.77363,1.2727 0.0692,0.0167 0.1316,-0.0158 0.27778,-0.14405 l 0.18863,-0.16551 -0.45401,-0.43852 -0.45401,-0.43852 0.0473,-0.36058 c 0.044,-0.33603 0.0426,-0.36392 -0.0223,-0.40947 -0.0384,-0.0269 -0.36325,-0.19355 -0.72205,-0.37036 -0.60089,-0.29611 -0.67629,-0.34477 -0.95548,-0.61658 -0.16671,-0.16231 -0.36397,-0.36544 -0.43837,-0.45142 l -0.13526,-0.15633 h -0.5701 -0.57009 l 0.21044,0.26129 c 0.11574,0.1437 0.21045,0.26996 0.21045,0.28059 0,0.0652 -0.2522,0.42458 -0.34004,0.4846 -0.0581,0.0397 -0.3004,0.17285 -0.5386,0.29603 l -0.43309,0.22395 -0.41557,-0.1461 c -0.92381,-0.32477 -0.97807,-0.38027 -1.03578,-1.05941 -0.0199,-0.23486 -0.0405,-0.42985 -0.0457,-0.4333 -0.005,-0.004 -0.25101,-0.12583 -0.54627,-0.27189 -0.29523,-0.14609 -0.57807,-0.30183 -0.62851,-0.34611 -0.11908,-0.10455 -0.4965,-0.653 -0.71992,-1.04618 -0.0966,-0.17002 -0.19875,-0.31764 -0.22699,-0.32803 -0.0716,-0.0264 -0.43899,0.0956 -0.46212,0.15351 -0.0281,0.0703 0.78374,2.08203 0.88085,2.18269 0.0457,0.0474 0.16934,0.1453 0.27478,0.21764 0.10549,0.0724 0.26618,0.19911 0.35717,0.28172 0.1677,0.15225 0.45385,0.56152 0.41716,0.5967 -0.0106,0.0105 -0.23811,0.001 -0.50469,-0.0205 -0.26659,-0.0218 -0.59634,-0.0398 -0.7328,-0.0398 -0.23103,0 -0.25066,-0.007 -0.2855,-0.0943 -0.0205,-0.0519 -0.0374,-0.13385 -0.0374,-0.18212 0,-0.20105 -0.0912,-0.46844 -0.23439,-0.68657 -0.084,-0.1278 -0.33907,-0.59658 -0.56711,-1.04165 -0.22805,-0.44508 -0.51055,-0.9596 -0.6278,-1.14338 -0.23395,-0.36675 -0.33451,-0.57328 -0.33451,-0.68702 0,-0.0686 -0.0166,-0.0724 -0.22049,-0.0502 -0.1212,0.0131 -0.39301,0.0343 -0.60391,0.0468 l -0.38343,0.0229 -0.44096,-0.16551 c -0.24253,-0.091 -0.49682,-0.17726 -0.5651,-0.1916 -0.16535,-0.0348 -0.93081,0.10574 -1.17955,0.21655 -0.10549,0.047 -0.42287,0.26303 -0.70539,0.48012 l -0.51367,0.39473 -0.70253,0.0394 c -0.66087,0.037 -0.70712,0.0353 -0.78041,-0.0282 -0.0429,-0.0372 -0.078,-0.0894 -0.078,-0.11611 0,-0.12163 -0.65962,-0.3079 -1.09,-0.3079 h -0.2725 l -0.41223,-0.39667 -0.41221,-0.39668 0.44953,-0.49531 c 0.60149,-0.66275 1.00034,-1.03713 1.20729,-1.13323 0.28859,-0.13403 0.62154,-0.11151 1.23212,0.0832 0.72402,0.23087 1.28961,0.33488 1.34591,0.24751 0.0106,-0.0172 -0.004,-0.0628 -0.0348,-0.10114 -0.0883,-0.11191 -0.069,-0.17301 0.1377,-0.43492 0.10735,-0.13605 0.18932,-0.25265 0.18212,-0.25911 -0.006,-0.007 -0.10801,-0.0265 -0.22395,-0.0445 -0.1977,-0.0306 -0.21045,-0.0389 -0.20379,-0.13182 0.004,-0.0545 0.03,-0.14498 0.0579,-0.20103 0.0503,-0.10088 0.0553,-0.10206 0.45836,-0.1123 l 0.4075,-0.0105 0.24633,0.16177 0.24631,0.16177 0.13883,-0.12203 c 0.1621,-0.1425 0.48852,-0.24541 0.72594,-0.22886 0.14353,0.0105 0.17632,0.0301 0.27081,0.16536 0.1268,0.18149 0.31058,0.24604 0.93015,0.32659 l 0.38345,0.0498 0.0987,-0.10889 c 0.0544,-0.0599 0.24409,-0.35706 0.42179,-0.66029 0.1777,-0.30325 0.33659,-0.5515 0.35311,-0.55168 0.0482,-5.5e-4 0.36146,0.15869 0.78995,0.40159 0.21901,0.12412 0.4071,0.21717 0.41798,0.20674 0.0305,-0.0293 -0.10122,-1.20652 -0.13904,-1.24281 -0.0184,-0.0176 -0.18769,-0.0416 -0.37628,-0.0533 l -0.34287,-0.0213 -0.18031,-0.43182 c -0.0991,-0.2375 -0.18029,-0.46721 -0.18029,-0.51046 0,-0.0503 0.14857,-0.22486 0.41219,-0.4843 l 0.4122,-0.40567 1.70629,0.13004 c 2.2631,0.1725 2.07751,0.14759 2.2715,0.30473 0.47982,0.38866 1.49782,0.92559 2.63102,1.38768 0.94484,0.3853 2.44738,0.92639 2.4815,0.89365 0.0197,-0.0189 -1.1211,-1.04221 -1.63243,-1.46416 -1.30187,-1.07425 -3.14032,-2.34462 -4.59788,-3.1771 l -0.5526,-0.31562 h -0.85713 -0.85713 l -1.04428,-0.48279 c -1.90429,-0.8804 -2.79499,-1.2828 -2.83946,-1.2828 -0.0241,0 -0.20817,0.15599 -0.4089,0.34664 l -0.36495,0.34664 -1.20783,0.095 c -0.66431,0.0521 -1.28144,0.0948 -1.37143,0.0947 -0.1212,-1.2e-4 -0.27082,-0.0517 -0.57771,-0.19939 -0.42116,-0.20262 -2.08412,-0.93423 -3.22223,-1.41761 l -0.62763,-0.26656 -0.2268,0.21523 c -0.23934,0.22711 -0.26421,0.27857 -0.37087,0.76699 -0.0784,0.35884 -0.0922,0.3631 -0.62024,0.19175 l -0.36426,-0.11821 -0.0106,-0.34944 c -0.006,-0.19219 0.005,-0.49014 0.0267,-0.66209 0.0336,-0.27687 0.0664,-0.36592 0.28654,-0.77802 l 0.24862,-0.46535 -0.52451,-0.0273 c -0.53695,-0.028 -2.60416,0.001 -3.18942,0.0454 l -0.32591,0.0244 0.18022,0.0394 0.18024,0.0394 -0.23339,0.3908 -0.2334,0.39081 -0.29193,0.0235 c -0.16057,0.0131 -0.49394,0.0422 -0.74085,0.0649 l -0.44889,0.0412 -0.37079,0.66624 c -0.20394,0.36642 -0.45425,0.7821 -0.55624,0.92371 -0.20534,0.28509 -0.9881,1.08511 -1.06171,1.08511 -0.0313,0 -0.0472,-0.0701 -0.0477,-0.21151 -7.3e-4,-0.17039 -0.0292,-0.26513 -0.14593,-0.48737 -0.0895,-0.17036 -0.18081,-0.29245 -0.23869,-0.31919 -0.12666,-0.0586 -0.85202,-0.159 -1.148,-0.159 -0.26979,0 -0.23053,-0.0285 -0.79315,0.57606 l -0.27536,0.29587 -0.39566,0.0248 c -0.91983,0.0578 -2.41153,0.17397 -2.69017,0.20954 -0.37922,0.0485 -0.83692,0.20207 -1.42485,0.47835 -0.4446,0.20893 -0.47337,0.21705 -0.85305,0.2406 l -0.39291,0.0244 -0.36651,0.39017 c -0.27192,0.28946 -0.40779,0.47088 -0.52643,0.70282 -0.0879,0.17197 -0.23325,0.38846 -0.3229,0.48111 l -0.16299,0.16844 -0.85402,-0.14326 c -0.71514,-0.11992 -0.9507,-0.14435 -1.44837,-0.15004 -0.7781,-0.009 -0.71362,-0.0395 -2.01306,0.95882 -1.57559,1.21061 -3.36443,2.90712 -4.70267,4.4599 -0.78948,0.91605 -2.18004,2.75072 -2.18004,2.87628 0,0.0163 0.2007,0.0296 0.44599,0.0296 0.49468,0 0.6043,-0.0279 1.58443,-0.40155 0.26263,-0.10009 0.48985,-0.17477 0.50493,-0.16583 0.0151,0.009 0.27904,0.33557 0.58656,0.72584 l 0.55911,0.70957 5.7e-4,0.20049 c 3e-4,0.1102 -0.029,0.52667 -0.0651,0.92534 l -0.0657,0.72484 0.10735,0.47061 c 0.059,0.25883 0.12281,0.49839 0.14168,0.53234 0.0189,0.034 0.16806,0.13204 0.33158,0.21799 0.67374,0.35414 0.76311,0.42269 0.96854,0.74292 0.10536,0.16416 0.19149,0.30876 0.19149,0.3213 0,0.0131 -0.0951,0.18862 -0.21143,0.39125 l -0.21144,0.36841 0.0106,1.18454 0.0106,1.18454 0.8819,0.45179 0.88191,0.45178 0.0241,0.64074 c 0.0133,0.35242 0.0268,0.7649 0.0301,0.91663 l 0.006,0.27587 0.60981,0.36093 0.60982,0.36092 0.361,0.65062 c 0.43885,0.79089 0.56827,1.09504 0.59342,1.39467 0.0216,0.25658 0.008,0.28264 -0.37091,0.67963 l -0.19296,0.20253 -0.72915,0.13903 -0.72917,0.13902 -0.60153,1.07094 c -1.67041,2.97383 -2.1218,3.73615 -2.34884,3.96674 l -0.13749,0.13963 -0.39796,-0.11073 c -0.21889,-0.0609 -0.4432,-0.10994 -0.49848,-0.10902 -0.0865,0.001 -0.27127,0.21631 -1.33638,1.55408 l -1.2359,1.55228 -7.2e-4,0.5351 -7.2e-4,0.53511 -0.55828,0.39458 c -0.41999,0.29688 -0.55356,0.41031 -0.53926,0.45805 0.0106,0.0349 0.0307,0.39514 0.0453,0.80055 l 0.0263,0.73709 -0.36872,0.23323 c -0.31608,0.19994 -0.37396,0.25226 -0.40538,0.3664 -0.0457,0.16582 -0.16024,1.0076 -0.16084,1.18148 -5.9e-4,0.17626 0.24517,0.86599 0.44489,1.24849 0.0905,0.17314 0.18482,0.40584 0.20982,0.51711 0.025,0.11125 0.15479,0.93654 0.28841,1.83394 l 0.24295,1.63163 0.59411,0.85123 c 1.41638,2.02938 2.68839,3.5062 4.42283,5.13494 1.50531,1.41357 2.95166,2.53047 4.84551,3.7418 0.41124,0.26302 0.78221,0.49535 0.8244,0.51628 0.0422,0.0209 1.52609,0.47226 3.29756,1.00298 3.43639,1.02951 4.97664,1.50644 5.19937,1.60995 0.0777,0.0361 0.38244,0.31504 0.69662,0.63756 l 0.55862,0.5734 0.70294,0.13388 c 1.79754,0.34235 3.16681,0.50419 4.88241,0.57703 0.87338,0.037 2.98112,0.0156 3.83438,-0.0389 z m 10.28253,-10.87362 c -0.0141,-0.0135 -0.0251,-0.19143 -0.0248,-0.39541 l 8.7e-4,-0.3709 0.28589,-0.31265 c 0.15724,-0.17196 0.28626,-0.33418 0.28673,-0.36048 4.2e-4,-0.0263 -0.0246,-0.095 -0.0557,-0.15273 -0.0676,-0.12544 -0.0334,-0.14841 0.22267,-0.1497 0.23132,-0.001 0.4255,-0.1 0.81874,-0.41642 0.51055,-0.41094 0.71591,-0.64118 0.83275,-0.93361 0.15253,-0.38176 0.21435,-0.45546 0.6505,-0.77544 l 0.40498,-0.2971 0.83244,-0.0578 0.83245,-0.0578 0.21281,-0.15414 c 0.11708,-0.0847 0.31679,-0.23844 0.44386,-0.34147 0.30004,-0.24327 0.75222,-0.57026 0.78857,-0.57026 0.0301,0 0.11414,0.18432 0.23275,0.51093 l 0.0721,0.19828 -0.35447,0.34687 c -0.19496,0.19078 -0.40624,0.37712 -0.4695,0.41406 -0.0633,0.0369 -0.25203,0.0941 -0.41949,0.12676 -0.16745,0.0327 -0.33832,0.0883 -0.3797,0.12333 -0.0415,0.0351 -0.65451,0.68446 -1.36252,1.44311 -0.708,0.75865 -1.44301,1.53157 -1.63335,1.71763 l -0.34607,0.33825 -0.80522,0.0759 c -0.86292,0.0813 -1.0272,0.0891 -1.06725,0.0507 z M 270.6147,167.1326 c 0.0106,-0.0252 0.0498,-0.12044 0.0874,-0.2115 0.10789,-0.26139 0.29238,-0.51756 0.68496,-0.95134 l 0.36448,-0.40277 -0.0357,-0.38045 c -0.0554,-0.58917 -0.0495,-0.87704 0.0177,-0.87704 0.11895,0 0.47784,0.15409 0.49717,0.21345 0.0106,0.0343 0.0557,0.2278 0.0988,0.42992 0.0431,0.20212 0.14015,0.53317 0.21548,0.73566 0.20195,0.54282 0.39145,1.1076 0.41913,1.24916 l 0.0244,0.12439 -0.20496,0.0213 c -0.26942,0.028 -1.64729,0.0952 -1.95042,0.0952 -0.17458,0 -0.23241,-0.0118 -0.21839,-0.046 z m -36.51578,37.17671 c -0.25812,-0.73159 -0.46416,-1.17464 -0.75179,-1.6166 l -0.19149,-0.29426 -0.16364,-0.95637 c -0.33015,-1.92956 -0.47828,-2.5406 -0.87991,-3.62977 l -0.22295,-0.60464 0.0519,-1.46915 0.0519,-1.46915 0.22939,-0.79784 c 0.12613,-0.43881 0.22937,-0.82407 0.22937,-0.85613 0,-0.0712 -0.17295,-0.40417 -0.61202,-1.17833 l -0.33379,-0.58853 0.0384,-1.07941 0.0384,-1.0794 -0.10509,-0.53906 c -0.30286,-1.55388 -0.95502,-4.2177 -1.05824,-4.32245 -0.0855,-0.0868 -0.35612,1.79739 -0.4668,3.25004 -0.0639,0.83841 -0.0639,3.57524 -8e-5,4.3772 0.30176,3.78928 1.25772,7.40331 2.84981,10.77368 0.45953,0.97277 1.48976,2.85505 1.51806,2.77357 0.006,-0.0183 -0.0934,-0.33026 -0.22142,-0.6934 z"
       id="path52" />
  </g>
</svg>
