<?xml version="1.0" encoding="UTF-8" standalone="no"?>
<svg
   xmlns:dc="http://purl.org/dc/elements/1.1/"
   xmlns:cc="http://creativecommons.org/ns#"
   xmlns:rdf="http://www.w3.org/1999/02/22-rdf-syntax-ns#"
   xmlns:svg="http://www.w3.org/2000/svg"
   xmlns="http://www.w3.org/2000/svg"
   xmlns:sodipodi="http://sodipodi.sourceforge.net/DTD/sodipodi-0.dtd"
   xmlns:inkscape="http://www.inkscape.org/namespaces/inkscape"
   width="975.9917"
   height="260.0571"
   viewBox="0 0 258.23101 68.806771"
   version="1.1"
   id="svg8"
   sodipodi:docname="logo_white.svg"
   inkscape:version="1.0.2 (e86c870879, 2021-01-15)">
  <defs
     id="defs2">
    <inkscape:path-effect
       effect="bspline"
       id="path-effect1064"
       is_visible="true"
       lpeversion="1"
       weight="33.333333"
       steps="2"
       helper_size="0"
       apply_no_weight="true"
       apply_with_weight="true"
       only_selected="false" />
    <inkscape:path-effect
       effect="bspline"
       id="path-effect1060"
       is_visible="true"
       lpeversion="1"
       weight="33.333333"
       steps="2"
       helper_size="0"
       apply_no_weight="true"
       apply_with_weight="true"
       only_selected="false" />
    <inkscape:path-effect
       effect="bspline"
       id="path-effect1056"
       is_visible="true"
       lpeversion="1"
       weight="33.333333"
       steps="2"
       helper_size="0"
       apply_no_weight="true"
       apply_with_weight="true"
       only_selected="false" />
    <inkscape:path-effect
       effect="bspline"
       id="path-effect1052"
       is_visible="true"
       lpeversion="1"
       weight="33.333333"
       steps="2"
       helper_size="0"
       apply_no_weight="true"
       apply_with_weight="true"
       only_selected="false" />
    <inkscape:path-effect
       effect="bspline"
       id="path-effect1048"
       is_visible="true"
       lpeversion="1"
       weight="33.333333"
       steps="2"
       helper_size="0"
       apply_no_weight="true"
       apply_with_weight="true"
       only_selected="false" />
    <inkscape:path-effect
       effect="bspline"
       id="path-effect1044"
       is_visible="true"
       lpeversion="1"
       weight="33.333333"
       steps="2"
       helper_size="0"
       apply_no_weight="true"
       apply_with_weight="true"
       only_selected="false" />
    <inkscape:path-effect
       effect="bspline"
       id="path-effect1040"
       is_visible="true"
       lpeversion="1"
       weight="33.333333"
       steps="2"
       helper_size="0"
       apply_no_weight="true"
       apply_with_weight="true"
       only_selected="false" />
    <inkscape:path-effect
       effect="bspline"
       id="path-effect984"
       is_visible="true"
       lpeversion="1"
       weight="33.333333"
       steps="2"
       helper_size="0"
       apply_no_weight="true"
       apply_with_weight="true"
       only_selected="false" />
    <inkscape:path-effect
       effect="bspline"
       id="path-effect980"
       is_visible="true"
       lpeversion="1"
       weight="33.333333"
       steps="2"
       helper_size="0"
       apply_no_weight="true"
       apply_with_weight="true"
       only_selected="false" />
    <inkscape:path-effect
       effect="bspline"
       id="path-effect976"
       is_visible="true"
       lpeversion="1"
       weight="33.333333"
       steps="2"
       helper_size="0"
       apply_no_weight="true"
       apply_with_weight="true"
       only_selected="false" />
    <clipPath
       clipPathUnits="userSpaceOnUse"
       id="clipPath1034">
      <path
         style="fill:#0000ff;stroke-width:0.850929"
         d="m 446.17815,150.69671 -23.62907,-23.02131 -0.0214,-13.48094 -0.0214,-13.48093 h 13.75264 13.75265 l 24.21469,23.02675 24.2147,23.02677 v 13.47548 13.47548 h -14.31685 -14.31684 z m -55.96597,16.3384 c -19.74702,-2.33809 -38.5133,-9.97525 -52.80517,-21.48965 -35.64599,-28.71868 -42.80556,-82.147841 -16.0333,-119.65085 13.43684,-18.8225301 36.4699,-32.4928 62.06133,-36.83378 10.46866,-1.77575 28.26165,-1.77008 38.86584,0.0124 39.93626,6.7129802 69.29884,33.87169 76.68701,70.931118 2.85245,14.307936 1.44135,33.310279 -3.48945,46.990102 -2.40123,6.66186 -5.85513,13.62938 -6.75632,13.62938 -0.34256,0 -6.84311,-6.20285 -14.4457,-13.78412 -11.27971,-11.248084 -13.79151,-14.186223 -13.65255,-15.969724 0.0937,-1.202079 0.44513,-5.434274 0.7811,-9.404871 2.89465,-34.212792 -23.60356,-62.881626 -58.1206,-62.881626 -48.65684,0 -76.45331,53.926149 -48.18843,93.487211 10.67502,14.94132 29.04255,24.31547 47.64326,24.31547 h 7.98518 l 13.46597,12.81924 13.46599,12.81924 -2.5664,0.92907 c -9.67526,3.50259 -32.36553,5.56523 -44.89776,4.08139 z m 7.20069,-63.20749 -11.56475,-11.017502 V 79.340297 65.870481 h 14.19532 14.19534 l 11.54232,10.992152 11.54232,10.992152 h -13.73648 -13.73648 l -0.43641,13.495175 -0.4364,13.49517 z"
         id="path1036" />
    </clipPath>
  </defs>
  <sodipodi:namedview
     id="base"
     pagecolor="#000000"
     bordercolor="#666666"
     borderopacity="1.0"
     inkscape:pageopacity="0"
     inkscape:pageshadow="2"
     inkscape:zoom="0.30184798"
     inkscape:cx="473.34252"
     inkscape:cy="89.99526"
     inkscape:document-units="mm"
     inkscape:current-layer="layer1"
     showgrid="false"
     fit-margin-top="0"
     fit-margin-left="0"
     fit-margin-right="0"
     fit-margin-bottom="0"
     showguides="true"
     inkscape:guide-bbox="true"
     units="px"
     inkscape:window-width="1366"
     inkscape:window-height="711"
     inkscape:window-x="0"
     inkscape:window-y="27"
     inkscape:window-maximized="1"
     inkscape:pagecheckerboard="false"
     inkscape:document-rotation="0" />
  <metadata
     id="metadata5">
    <rdf:RDF>
      <cc:Work
         rdf:about="">
        <dc:format>image/svg+xml</dc:format>
        <dc:type
           rdf:resource="http://purl.org/dc/dcmitype/StillImage" />
        <dc:title />
      </cc:Work>
    </rdf:RDF>
  </metadata>
  <g
     inkscape:label="Livello 1"
     inkscape:groupmode="layer"
     id="layer1"
     transform="translate(-32.317108,-161.78143)"
     style="opacity:0.99">
    <text
       xml:space="preserve"
       style="font-style:normal;font-variant:normal;font-weight:900;font-stretch:normal;font-size:54.111px;line-height:125%;font-family:Trueno;-inkscape-font-specification:'Trueno, Heavy';font-variant-ligatures:normal;font-variant-caps:normal;font-variant-numeric:normal;font-variant-east-asian:normal;letter-spacing:0px;word-spacing:0px;fill:#ffffff;fill-opacity:1;stroke:none;stroke-width:3.58298;stroke-linecap:butt;stroke-linejoin:miter;stroke-miterlimit:4;stroke-dasharray:none;stroke-opacity:1"
       x="49.200989"
       y="211.08792"
       id="text50"
       inkscape:export-filename="H:\Archivio Lavori\Web\HfcQGIS\In Progess\in_progress\hfc_white.png"
       inkscape:export-xdpi="96"
       inkscape:export-ydpi="96"
       transform="scale(0.98334537,1.0169367)"><tspan
         sodipodi:role="line"
         id="tspan48"
         x="49.200989"
         y="211.08792"
         style="font-style:normal;font-variant:normal;font-weight:900;font-stretch:normal;font-size:54.111px;font-family:Trueno;-inkscape-font-specification:'Trueno, Heavy';font-variant-ligatures:normal;font-variant-caps:normal;font-variant-numeric:normal;font-variant-east-asian:normal;fill:#ffffff;fill-opacity:1;stroke:#ffffff;stroke-width:3.58298;stroke-miterlimit:4;stroke-dasharray:none;stroke-opacity:1">3   DCM</tspan><tspan
         sodipodi:role="line"
         x="49.200989"
         y="278.72668"
         style="font-style:normal;font-variant:normal;font-weight:900;font-stretch:normal;font-size:54.111px;font-family:Trueno;-inkscape-font-specification:'Trueno, Heavy';font-variant-ligatures:normal;font-variant-caps:normal;font-variant-numeric:normal;font-variant-east-asian:normal;fill:#ffffff;fill-opacity:1;stroke:#ffffff;stroke-width:3.58298;stroke-miterlimit:4;stroke-dasharray:none;stroke-opacity:1"
         id="tspan861" /></text>
    <path
       style="fill:#ffffff;stroke-width:0.0298697"
       d="m 111.54089,219.36246 c -0.94977,-0.0415 -2.80029,-0.2987 -4.04163,-0.56162 -4.21082,-0.89189 -8.104414,-2.78226 -11.435936,-5.55226 -0.574687,-0.47783 -1.990136,-1.83423 -2.462165,-2.35944 -2.240272,-2.49277 -3.825279,-5.09443 -4.952949,-8.12989 -0.736451,-1.98236 -1.280587,-4.54309 -1.402481,-6.60006 -0.03977,-0.67087 -0.03921,-2.55024 7.99e-4,-3.24903 0.114587,-1.99764 0.56968,-4.21553 1.282511,-6.2504 1.115117,-3.18324 2.817443,-6.00116 5.192984,-8.59611 0.854001,-0.93288 2.378464,-2.30267 3.474194,-3.12172 2.898173,-2.16634 6.359453,-3.76896 9.872323,-4.57104 1.34434,-0.30695 2.64421,-0.49619 4.33458,-0.63108 1.59402,-0.12719 4.472,-0.0139 6.10645,0.24044 1.43603,0.22344 3.58516,0.80902 5.21141,1.41998 3.34149,1.25535 6.25834,3.08353 8.8431,5.54252 4.23026,4.02445 6.80764,9.16012 7.51616,14.97666 0.10573,0.86797 0.12726,1.22664 0.14519,2.41857 0.0413,2.74426 -0.18263,4.29449 -1.01845,7.05172 -0.66039,2.17851 -1.4916,4.00032 -2.73217,5.98814 -1.24455,1.99423 -3.01578,4.05087 -4.84675,5.62775 -2.50022,2.15327 -5.44125,3.83873 -8.61571,4.93752 -2.22944,0.7717 -4.93251,1.30263 -7.18255,1.41078 -0.53811,0.0258 -2.76127,0.0316 -3.28891,0.008 z m 3.49048,-0.18471 c 6.08209,-0.38611 11.9529,-2.9273 16.32144,-7.06477 3.19707,-3.02797 5.43727,-6.64299 6.69955,-10.81115 0.22351,-0.73801 0.22197,-0.7084 0.0414,-0.80215 -0.0804,-0.0417 -0.1612,-0.0902 -0.17954,-0.10768 -0.024,-0.0229 -0.0193,-0.24557 0.0169,-0.79916 0.0987,-1.50927 0.1403,-2.29371 0.16033,-3.02743 l 0.0203,-0.74479 -0.28636,-0.1027 -0.28637,-0.1028 -0.11375,-0.51183 c -0.12594,-0.56675 -0.18453,-0.78309 -0.36908,-1.36267 l -0.12525,-0.39339 -0.21809,-0.21412 c -0.34865,-0.34229 -1.10439,-1.01307 -1.66221,-1.47532 -0.39953,-0.33108 -0.52413,-0.45127 -0.55402,-0.53443 -0.0212,-0.059 -0.11607,-0.33675 -0.2108,-0.61722 -0.15541,-0.46014 -0.36461,-1.01656 -0.39199,-1.04263 -0.0201,-0.0192 -0.43026,0.19115 -0.48453,0.24838 -0.0731,0.0771 -0.14051,0.41616 -0.16372,0.8234 -0.0177,0.31118 -0.0144,0.34054 0.045,0.41141 0.0351,0.0419 0.10444,0.084 0.15375,0.0934 0.0686,0.013 0.11584,0.058 0.20034,0.19037 0.16873,0.26435 0.22562,0.40616 0.27699,0.69058 0.07,0.3876 0.0794,0.42094 0.1185,0.42025 0.0196,-3.3e-4 0.13109,-0.0593 0.24751,-0.13112 0.11642,-0.0718 0.24388,-0.1305 0.28321,-0.1305 0.0422,0 0.11997,0.0461 0.18963,0.11237 0.15272,0.14537 0.95595,1.16356 1.04763,1.32801 l 0.0703,0.12622 -0.0746,0.35248 -0.0746,0.35246 -1.16349,1.22417 -1.16349,1.22418 -0.32716,3.3e-4 c -0.37548,4.4e-4 -0.42438,0.0137 -0.65329,0.17821 -0.13027,0.0936 -0.17712,0.11324 -0.20936,0.0878 -0.0228,-0.018 -0.25362,-0.28919 -0.51281,-0.60254 l -0.47128,-0.56971 -0.14623,-0.4136 c -0.30525,-0.86334 -0.35517,-1.16452 -0.38001,-2.29309 l -0.0184,-0.83047 -0.18936,-0.39338 -0.18937,-0.39338 0.0717,-0.61193 c 0.0395,-0.33655 0.0749,-0.74304 0.0789,-0.90332 l 0.007,-0.29139 -0.29709,-0.0718 c -0.1634,-0.0395 -0.30574,-0.0636 -0.3163,-0.0535 -0.0438,0.0418 -0.079,0.88296 -0.0724,1.72797 0.004,0.49682 -0.004,1.06099 -0.0177,1.2537 -0.0273,0.386 0.0167,0.99372 0.0971,1.3397 0.0563,0.24208 0.27288,0.80798 0.43695,1.14148 0.14232,0.2893 0.26494,0.46446 0.48507,0.69296 0.21913,0.22749 0.2694,0.33976 0.21818,0.48741 -0.038,0.10941 -0.0253,0.67529 0.021,0.93408 0.0166,0.0927 0.0291,0.10662 0.0843,0.0935 0.0493,-0.0116 0.15715,0.0558 0.44534,0.27852 l 0.38037,0.29381 0.16114,-0.15144 0.16113,-0.15145 0.23926,0.0799 c 0.13159,0.0439 0.2702,0.0986 0.30804,0.12161 l 0.0688,0.0417 -0.0982,0.16695 c -0.30819,0.52397 -0.92412,1.51452 -0.96792,1.55665 -0.10136,0.0975 -1.60677,1.12498 -1.85011,1.26274 -0.13686,0.0776 -0.39978,0.19923 -0.58426,0.27055 -0.29031,0.11224 -0.37911,0.13288 -0.66017,0.15352 -0.1786,0.0131 -0.36965,0.0246 -0.42455,0.0253 -0.0955,7.9e-4 -0.11826,0.0279 -0.52427,0.6093 -0.23343,0.3343 -0.44645,0.67194 -0.47334,0.75034 -0.0628,0.18339 -0.18423,0.76348 -0.26414,1.26299 -0.0376,0.23483 -0.0896,0.44473 -0.12964,0.52356 -0.0888,0.17464 -0.32734,0.39822 -1.39515,1.30783 l -0.8962,0.76341 h -0.32254 -0.32254 l -0.29106,0.23291 c -0.16008,0.1281 -0.34889,0.26516 -0.41958,0.30458 -0.13085,0.073 -0.4572,0.13972 -0.87007,0.17792 -0.12181,0.0112 -0.24109,0.0353 -0.26507,0.0532 -0.024,0.018 -0.13917,0.13934 -0.25599,0.26969 l -0.21241,0.23697 -0.0208,0.28753 c -0.0388,0.53744 -0.0896,0.94367 -0.12344,0.98709 -0.0232,0.0298 -0.16734,0.0589 -0.46241,0.0931 l -0.42865,0.0498 -0.45927,0.25937 c -1.1248,0.63522 -2.2931,1.24376 -2.38783,1.24376 -0.022,0 -0.42564,-0.11801 -0.89694,-0.26225 l -0.85691,-0.26225 h -0.45854 -0.45855 l -0.40409,0.17483 c -0.22226,0.0961 -0.42734,0.17483 -0.45573,0.17483 -0.0284,0 -0.19847,-0.0411 -0.37793,-0.0913 l -0.32628,-0.0913 0.0576,-0.15932 c 0.0836,-0.23111 0.14239,-0.55905 0.16724,-0.93201 l 0.0218,-0.32682 0.36355,-0.4561 c 0.19995,-0.25086 0.36355,-0.46763 0.36355,-0.48173 0,-0.014 0.0484,-0.33709 0.1076,-0.71776 l 0.1076,-0.69212 -0.17852,-0.84506 -0.17852,-0.84502 0.57688,-1.64846 0.57689,-1.64846 0.44528,-0.28657 c 0.24492,-0.1576 0.48036,-0.33031 0.52322,-0.3838 0.0429,-0.0535 0.11982,-0.21862 0.17104,-0.36698 0.0816,-0.23659 0.093,-0.30916 0.0915,-0.59029 -0.003,-0.56811 -0.16896,-2.17205 -0.30905,-2.98679 l -0.0827,-0.48079 0.36987,-0.34967 c 0.20343,-0.19232 0.45402,-0.46324 0.55691,-0.60205 l 0.18706,-0.25236 -0.10221,-0.67527 c -0.0561,-0.37141 -0.10942,-0.68219 -0.11828,-0.69063 -0.0152,-0.0145 -0.49826,0.0389 -0.60401,0.0667 -0.0327,0.008 -0.16715,-0.11794 -0.41225,-0.38837 -0.19995,-0.22063 -0.37477,-0.4087 -0.38845,-0.41792 -0.0137,-0.009 -0.11561,-0.006 -0.22646,0.009 -0.11087,0.0142 -0.20396,0.0216 -0.20688,0.0168 -0.0939,-0.15833 -0.30454,-0.43143 -0.33264,-0.43139 -0.021,3e-5 -0.43761,-0.0273 -0.92598,-0.0608 -1.03964,-0.0711 -0.90334,-0.0249 -1.61571,-0.54792 l -0.47131,-0.34599 -0.42402,-0.031 c -0.37855,-0.0276 -0.44396,-0.0407 -0.60988,-0.12117 -0.10221,-0.0497 -0.21614,-0.11267 -0.25318,-0.14011 -0.0797,-0.0591 -1.11223,-1.85182 -1.52241,-2.64328 -0.15782,-0.30451 -0.36759,-0.74379 -0.46616,-0.97617 l -0.17924,-0.42252 -0.0106,-0.37501 c -0.0108,-0.40051 0.0268,-0.68917 0.11457,-0.87853 0.0299,-0.0644 0.20458,-0.27158 0.38829,-0.46039 0.18369,-0.18881 0.41472,-0.42725 0.5134,-0.52986 l 0.1794,-0.18658 0.16543,-0.67489 c 0.099,-0.40392 0.18894,-0.70572 0.22399,-0.75172 0.0686,-0.0901 0.3248,-0.3261 0.75207,-0.69294 l 0.30619,-0.26288 0.50521,0.0252 0.5052,0.0251 0.0709,-0.0811 c 0.32051,-0.36617 0.30376,-0.35307 0.5345,-0.41847 0.1216,-0.0345 0.38736,-0.14501 0.59057,-0.24567 0.38011,-0.18827 0.46422,-0.21187 1.14591,-0.3214 l 0.29045,-0.0466 0.59268,-0.39556 0.59267,-0.39556 0.55594,-0.0437 0.55593,-0.0437 0.38561,0.13388 c 0.61953,0.21508 0.91824,0.26457 1.60787,0.2664 l 0.58505,8e-4 0.58982,0.46344 0.5898,0.46344 0.47176,-0.10693 0.47174,-0.10693 0.45075,0.28792 c 0.48907,0.31239 0.58371,0.35404 0.80454,0.35404 h 0.14564 l 0.20088,0.28117 c 0.11049,0.15465 0.19499,0.29027 0.18777,0.30139 -0.007,0.0111 -0.12044,0.0502 -0.25159,0.087 -0.13114,0.0368 -0.28868,0.0907 -0.35009,0.12018 -0.0979,0.0469 -0.57727,0.52708 -0.57727,0.57827 0,0.0106 0.48568,0.36843 1.07929,0.79512 0.59362,0.4267 1.12408,0.81536 1.17881,0.86368 0.087,0.0768 0.0996,0.10643 0.0996,0.2352 0,0.18424 0.0601,0.24785 0.25861,0.27374 0.0802,0.0105 0.15544,0.0133 0.16726,0.006 0.0118,-0.007 0.0541,-0.1442 0.094,-0.30501 0.0399,-0.1608 0.0806,-0.30487 0.0906,-0.32017 0.01,-0.0153 0.14901,-0.0311 0.30906,-0.0352 l 0.29103,-0.007 0.5644,0.41932 c 0.31042,0.23063 0.61277,0.44278 0.67188,0.47146 0.0637,0.0309 0.17436,0.0521 0.27182,0.0521 h 0.16437 l 0.70757,0.68713 c 0.71027,0.68975 1.0508,0.97727 1.33524,1.12746 l 0.15305,0.0808 0.10715,-0.18279 c 0.29349,-0.50062 0.34979,-0.66961 0.40252,-1.20852 l 0.0206,-0.20982 -0.16886,-0.10281 c -0.33924,-0.20652 -1.14524,-0.60175 -1.73147,-0.84904 -0.69663,-0.29385 -0.93185,-0.41539 -1.51952,-0.78513 -0.59845,-0.37651 -0.5677,-0.33423 -0.58863,-0.80941 l -0.0173,-0.39307 0.0886,-0.0166 c 0.12311,-0.023 0.42685,-0.0444 1.29806,-0.0918 l 0.75016,-0.0408 0.38274,0.1994 c 0.67237,0.35031 2.0104,0.9594 2.2148,1.00822 0.0553,0.0132 0.10509,-0.0125 0.22182,-0.11411 l 0.15062,-0.13112 -0.36254,-0.34739 -0.36253,-0.34739 0.0378,-0.28565 c 0.0351,-0.2662 0.034,-0.2883 -0.0178,-0.32438 -0.0307,-0.0213 -0.29007,-0.15333 -0.57658,-0.2934 -0.47982,-0.23457 -0.54003,-0.27312 -0.76297,-0.48845 -0.13312,-0.12858 -0.29064,-0.2895 -0.35005,-0.35761 l -0.108,-0.12384 h -0.45524 -0.45522 l 0.16804,0.20699 c 0.0924,0.11384 0.16804,0.21386 0.16804,0.22228 0,0.0516 -0.20138,0.33635 -0.27152,0.3839 -0.0464,0.0315 -0.23988,0.13693 -0.43009,0.23451 l -0.34583,0.17741 -0.33184,-0.11574 c -0.73768,-0.25728 -0.78101,-0.30125 -0.82709,-0.83926 -0.0159,-0.18605 -0.0323,-0.34052 -0.0365,-0.34325 -0.004,-0.003 -0.20044,-0.0997 -0.43621,-0.21539 -0.23575,-0.11573 -0.4616,-0.23911 -0.50188,-0.27419 -0.0951,-0.0828 -0.39646,-0.5173 -0.57487,-0.82877 -0.0771,-0.13469 -0.1587,-0.25164 -0.18125,-0.25987 -0.0572,-0.0209 -0.35055,0.0757 -0.36901,0.12161 -0.0224,0.0557 0.62583,1.64937 0.70337,1.72911 0.0365,0.0375 0.13522,0.11511 0.21942,0.17242 0.0842,0.0574 0.21255,0.15773 0.28521,0.22317 0.13391,0.12061 0.3624,0.44484 0.33311,0.47271 -0.008,0.008 -0.19014,7.9e-4 -0.40301,-0.0162 -0.21288,-0.0173 -0.47619,-0.0315 -0.58515,-0.0315 -0.18449,0 -0.20016,-0.006 -0.22798,-0.0747 -0.0164,-0.0411 -0.0299,-0.10603 -0.0299,-0.14427 0,-0.15927 -0.0728,-0.3711 -0.18717,-0.5439 -0.0671,-0.10124 -0.27075,-0.4726 -0.45285,-0.82519 -0.1821,-0.35259 -0.40768,-0.76018 -0.50131,-0.90577 -0.18681,-0.29054 -0.26711,-0.45415 -0.26711,-0.54426 0,-0.0543 -0.0133,-0.0573 -0.17607,-0.0398 -0.0968,0.0104 -0.31382,0.0272 -0.48223,0.0371 l -0.30618,0.0181 -0.35211,-0.13111 c -0.19367,-0.0721 -0.39672,-0.14043 -0.45125,-0.15179 -0.13203,-0.0276 -0.74327,0.0838 -0.94189,0.17155 -0.0842,0.0372 -0.33767,0.20837 -0.56327,0.38035 l -0.41017,0.3127 -0.56099,0.0312 c -0.52772,0.0293 -0.56465,0.028 -0.62317,-0.0223 -0.0343,-0.0295 -0.0623,-0.0708 -0.0623,-0.092 0,-0.0964 -0.52672,-0.24391 -0.87039,-0.24391 h -0.2176 l -0.32917,-0.31424 -0.32916,-0.31425 0.35896,-0.39238 c 0.4803,-0.52503 0.79879,-0.82161 0.96405,-0.89774 0.23044,-0.10618 0.49631,-0.0883 0.98387,0.0659 0.57814,0.18289 1.02978,0.26529 1.07474,0.19608 0.008,-0.0136 -0.003,-0.0498 -0.0278,-0.0801 -0.0705,-0.0887 -0.0551,-0.13705 0.10995,-0.34454 0.0857,-0.10777 0.15118,-0.20014 0.14543,-0.20526 -0.005,-0.006 -0.0863,-0.021 -0.17883,-0.0352 -0.15787,-0.0243 -0.16805,-0.0308 -0.16273,-0.10443 0.003,-0.0432 0.024,-0.11485 0.0462,-0.15926 0.0402,-0.0799 0.0442,-0.0808 0.36601,-0.089 l 0.32539,-0.008 0.1967,0.12816 0.19669,0.12815 0.11086,-0.0967 c 0.12944,-0.11289 0.39009,-0.19441 0.57967,-0.1813 0.11462,0.008 0.1408,0.0238 0.21625,0.13099 0.10125,0.14378 0.24801,0.19491 0.74274,0.25873 l 0.3062,0.0395 0.0788,-0.0863 c 0.0434,-0.0475 0.19491,-0.28287 0.33681,-0.52308 0.14189,-0.24023 0.26877,-0.4369 0.28196,-0.43704 0.0385,-4.4e-4 0.28863,0.12571 0.63079,0.31814 0.17489,0.0983 0.32508,0.17204 0.33377,0.16378 0.0243,-0.0232 -0.0808,-0.9558 -0.11103,-0.98455 -0.0147,-0.0139 -0.14987,-0.033 -0.30047,-0.0422 l -0.27379,-0.0169 -0.14398,-0.34208 c -0.0791,-0.18815 -0.14396,-0.37012 -0.14396,-0.40439 0,-0.0398 0.11863,-0.17813 0.32914,-0.38365 l 0.32915,-0.32137 1.36251,0.10301 c 1.80713,0.13666 1.65893,0.11692 1.81384,0.24141 0.38314,0.30789 1.19604,0.73324 2.10092,1.09931 0.75447,0.30523 1.95429,0.73388 1.98153,0.70794 0.0157,-0.015 -0.89522,-0.82563 -1.30353,-1.1599 -1.03957,-0.85101 -2.50761,-1.85739 -3.6715,-2.51687 l -0.44126,-0.24931 h -0.68444 -0.68443 l -0.83388,-0.38247 c -1.52062,-0.69744 -2.23186,-1.01622 -2.26737,-1.01622 -0.0192,0 -0.16623,0.12357 -0.32651,0.2746 l -0.29142,0.27461 -0.96448,0.0753 c -0.53047,0.0413 -1.02326,0.0751 -1.09511,0.075 -0.0968,-1e-4 -0.21626,-0.041 -0.46132,-0.15796 -0.3363,-0.16051 -1.66421,-0.74009 -2.57301,-1.12302 l -0.50118,-0.21117 -0.1811,0.17051 c -0.19112,0.17991 -0.21098,0.22068 -0.29615,0.6076 -0.0626,0.28427 -0.0736,0.28765 -0.49527,0.15191 l -0.29087,-0.0937 -0.008,-0.27682 c -0.005,-0.15226 0.004,-0.38829 0.0213,-0.52451 0.0268,-0.21933 0.053,-0.28988 0.2288,-0.61634 l 0.19853,-0.36865 -0.41883,-0.0216 c -0.42877,-0.0222 -2.07947,7.9e-4 -2.54682,0.036 l -0.26024,0.0193 0.14391,0.0312 0.14392,0.0312 -0.18636,0.30959 -0.18638,0.30959 -0.23311,0.0186 c -0.12822,0.0104 -0.39442,0.0334 -0.59158,0.0514 l -0.35845,0.0326 -0.29608,0.52779 c -0.16285,0.29028 -0.36273,0.61958 -0.44417,0.73176 -0.16397,0.22584 -0.78902,0.85962 -0.8478,0.85962 -0.025,0 -0.0377,-0.0555 -0.0381,-0.16756 -5.8e-4,-0.13498 -0.0233,-0.21004 -0.11653,-0.38609 -0.0715,-0.13496 -0.14438,-0.23168 -0.1906,-0.25286 -0.10114,-0.0464 -0.68035,-0.12596 -0.9167,-0.12596 -0.21543,0 -0.18408,-0.0226 -0.63335,0.45635 l -0.21988,0.23439 -0.31594,0.0196 c -0.7345,0.0458 -1.92565,0.13782 -2.14815,0.166 -0.30282,0.0384 -0.6683,0.16008 -1.13777,0.37894 -0.35502,0.16552 -0.378,0.17195 -0.68118,0.19061 l -0.31375,0.0193 -0.29266,0.30909 c -0.21714,0.2293 -0.32563,0.37302 -0.42037,0.55676 -0.0702,0.13624 -0.18625,0.30774 -0.25784,0.38114 l -0.13015,0.13343 -0.681953,-0.11349 c -0.571053,-0.095 -0.759153,-0.11435 -1.156552,-0.11886 -0.621329,-0.007 -0.56984,-0.0313 -1.607469,0.75957 -1.258141,0.95904 -2.686565,2.303 -3.755177,3.53311 -0.630416,0.72569 -1.740806,2.1791 -1.740806,2.27857 0,0.0129 0.160263,0.0234 0.356132,0.0234 0.395012,0 0.482546,-0.0221 1.265199,-0.31811 0.209716,-0.0793 0.391155,-0.13845 0.403197,-0.13137 0.01206,0.007 0.222819,0.26584 0.46838,0.57501 l 0.446461,0.56211 4.55e-4,0.15883 c 2.39e-4,0.0873 -0.02316,0.41722 -0.05198,0.73305 l -0.05246,0.57421 0.08572,0.37282 c 0.04711,0.20504 0.09807,0.39482 0.113134,0.42171 0.01509,0.0269 0.134199,0.1046 0.264773,0.17269 0.537995,0.28055 0.609359,0.33485 0.773399,0.58854 0.08413,0.13004 0.152909,0.2446 0.152909,0.25453 0,0.0104 -0.07594,0.14942 -0.168832,0.30994 l -0.168839,0.29186 0.0085,0.93838 0.0085,0.93839 0.704215,0.3579 0.704223,0.3579 0.01924,0.50759 c 0.01062,0.27918 0.0214,0.60595 0.02404,0.72615 l 0.0048,0.21854 0.486945,0.28592 0.486954,0.28592 0.288266,0.51542 c 0.35043,0.62654 0.453775,0.86748 0.473857,1.10485 0.01725,0.20326 0.0064,0.2239 -0.296179,0.5384 l -0.154082,0.16044 -0.582241,0.11014 -0.582257,0.11013 -0.480334,0.84839 c -1.333856,2.35585 -1.6943,2.95975 -1.875596,3.14242 l -0.109788,0.11062 -0.31778,-0.0877 c -0.174788,-0.0482 -0.353904,-0.0871 -0.398046,-0.0864 -0.06907,8e-4 -0.216614,0.17136 -1.067126,1.23114 l -0.986891,1.2297 -5.75e-4,0.4239 -5.75e-4,0.42391 -0.445798,0.31259 c -0.33537,0.23518 -0.442029,0.32504 -0.43061,0.36286 0.0085,0.0276 0.02451,0.31303 0.03617,0.63419 l 0.021,0.58392 -0.29443,0.18476 c -0.252396,0.15839 -0.298615,0.19984 -0.323704,0.29026 -0.03649,0.13136 -0.127955,0.79822 -0.128434,0.93596 -4.71e-4,0.13964 0.195773,0.68604 0.355253,0.98905 0.07227,0.13716 0.147583,0.3215 0.167546,0.40965 0.01996,0.0881 0.123603,0.74192 0.230301,1.45284 l 0.194,1.29256 0.474409,0.67434 c 1.131008,1.60766 2.146734,2.77759 3.531719,4.06787 1.202021,1.11982 2.35696,2.00462 3.869237,2.96422 0.328384,0.20837 0.624611,0.39242 0.6583,0.409 0.0337,0.0165 1.21861,0.37412 2.63317,0.79455 2.74402,0.81557 3.97394,1.19339 4.1518,1.27539 0.062,0.0286 0.30538,0.24958 0.55626,0.50507 l 0.44607,0.45425 0.56131,0.10606 c 1.43538,0.2712 2.52877,0.39941 3.89871,0.45712 0.69741,0.0293 2.38048,0.0123 3.06183,-0.0308 z m 8.21081,-8.61401 c -0.0113,-0.0107 -0.02,-0.15165 -0.0198,-0.31324 l 6.9e-4,-0.29383 0.22829,-0.24768 c 0.12556,-0.13622 0.22859,-0.26473 0.22896,-0.28557 3.4e-4,-0.0208 -0.0196,-0.0753 -0.0445,-0.12099 -0.054,-0.0994 -0.0267,-0.11757 0.17781,-0.11859 0.18471,-7.9e-4 0.33977,-0.0792 0.65378,-0.32988 0.40768,-0.32555 0.57167,-0.50794 0.66497,-0.7396 0.12179,-0.30243 0.17116,-0.36082 0.51943,-0.6143 l 0.32339,-0.23536 0.66472,-0.0458 0.66473,-0.0458 0.16993,-0.12211 c 0.0935,-0.0671 0.25296,-0.18889 0.35443,-0.27051 0.23959,-0.19272 0.60066,-0.45176 0.62969,-0.45176 0.024,0 0.0911,0.14602 0.18585,0.40476 l 0.0576,0.15708 -0.28305,0.27478 c -0.15568,0.15114 -0.32439,0.29876 -0.3749,0.32802 -0.0506,0.0292 -0.20125,0.0746 -0.33497,0.10042 -0.13372,0.0259 -0.27016,0.07 -0.3032,0.0977 -0.0331,0.0278 -0.52264,0.54222 -1.088,1.14322 -0.56535,0.601 -1.15227,1.2133 -1.30426,1.3607 l -0.27635,0.26796 -0.64298,0.0601 c -0.68906,0.0644 -0.82024,0.0706 -0.85222,0.0402 z m -3.34912,-33.5564 c 0.008,-0.02 0.0398,-0.0954 0.0698,-0.16755 0.0862,-0.20707 0.23347,-0.41 0.54695,-0.75364 l 0.29105,-0.31907 -0.0285,-0.30139 c -0.0442,-0.46674 -0.0395,-0.69479 0.0141,-0.69479 0.095,0 0.38156,0.12207 0.397,0.1691 0.008,0.0272 0.0445,0.18046 0.0789,0.34058 0.0344,0.16011 0.11191,0.42237 0.17206,0.58278 0.16126,0.43002 0.31258,0.87743 0.33468,0.98958 l 0.0195,0.0985 -0.16366,0.0169 c -0.21514,0.0222 -1.31539,0.0754 -1.55745,0.0754 -0.13941,0 -0.18558,-0.009 -0.17439,-0.0364 z m -29.158588,29.45114 c -0.206114,-0.57956 -0.370641,-0.93054 -0.60032,-1.28066 l -0.152908,-0.23311 -0.13067,-0.75763 c -0.263632,-1.52858 -0.381916,-2.01264 -0.702626,-2.87548 l -0.17803,-0.47899 0.04144,-1.16385 0.04144,-1.16385 0.183173,-0.63204 c 0.100717,-0.34763 0.183156,-0.65283 0.183156,-0.67822 0,-0.0564 -0.138104,-0.32019 -0.48871,-0.93347 l -0.266538,-0.46623 0.03066,-0.8551 0.03066,-0.85509 -0.08392,-0.42704 c -0.24184,-1.23098 -0.762603,-3.34124 -0.845026,-3.42422 -0.06827,-0.0688 -0.284369,1.42388 -0.372749,2.57466 -0.05103,0.66418 -0.05103,2.83228 -6.4e-5,3.46759 0.240961,3.00184 1.004315,5.86485 2.275631,8.53484 0.366944,0.77062 1.189603,2.26175 1.212201,2.1972 0.0048,-0.0145 -0.07458,-0.26163 -0.176808,-0.54931 z"
       id="path52" />
  </g>
</svg>
